<?xml version="1.0" encoding="UTF-8"?><svg id="uuid-0016f930-39f0-4bc8-8235-cf4bce84eca7" xmlns="http://www.w3.org/2000/svg" viewBox="0 0 24 24"><rect width="24" height="24" fill="none"/><g><path d="M14.588,2.341C9.254,.911,3.77,4.077,2.341,9.412c-1.429,5.335,1.736,10.818,7.071,12.247s10.818-1.736,12.247-7.071c1.429-5.335-1.736-10.818-7.071-12.247Zm5.139,11.73c-1.144,4.268-5.53,6.8-9.798,5.657-4.268-1.144-6.8-5.53-5.657-9.798,1.144-4.268,5.53-6.8,9.798-5.657,4.268,1.144,6.8,5.53,5.657,9.798Z"/><polygon points="10.447 17.796 8.464 5.876 12.776 9.102 18.124 8.464 10.447 17.796"/></g></svg>