<?xml version="1.0" encoding="UTF-8"?><svg id="uuid-1d83725f-5ccf-4a35-a0aa-98c78edcd73b" xmlns="http://www.w3.org/2000/svg" viewBox="0 0 24 24"><rect width="24" height="24" fill="none"/><g><path d="M17,3.34C12.217,.578,6.101,2.217,3.34,7c-2.761,4.783-1.123,10.899,3.66,13.66,4.783,2.761,10.899,1.123,13.66-3.66,2.761-4.783,1.123-10.899-3.66-13.66Zm1.928,12.66c-2.209,3.826-7.102,5.137-10.928,2.928-3.826-2.209-5.137-7.102-2.928-10.928,2.209-3.826,7.102-5.137,10.928-2.928,3.826,2.209,5.137,7.102,2.928,10.928Z"/><polygon points="15 6.804 13.83 18.83 10.5 14.598 5.17 13.83 15 6.804"/></g></svg>