<?xml version="1.0" encoding="UTF-8"?><svg id="uuid-3eb7ee52-978a-459a-87a4-4cc02ac5992d" xmlns="http://www.w3.org/2000/svg" viewBox="0 0 24 24"><rect width="24" height="24" fill="none"/><g><path d="M20.66,7C17.899,2.217,11.783,.578,7,3.34S.578,12.217,3.34,17c2.761,4.783,8.877,6.422,13.66,3.66,4.783-2.761,6.422-8.877,3.66-13.66Zm-4.66,11.928c-3.826,2.209-8.719,.898-10.928-2.928-2.209-3.826-.898-8.719,2.928-10.928,3.826-2.209,8.719-.898,10.928,2.928,2.209,3.826,.898,8.719-2.928,10.928Z"/><polygon points="17.196 9 5.17 10.17 9.402 13.5 10.17 18.83 17.196 9"/></g></svg>