<?xml version="1.0" encoding="UTF-8"?><svg id="uuid-ae9f95f2-fa7e-47a5-a9ec-c8e1cede2e51" xmlns="http://www.w3.org/2000/svg" viewBox="0 0 24 24"><rect width="24" height="24" fill="none"/><g><path d="M21.659,9.412C20.23,4.077,14.746,.911,9.412,2.341,4.077,3.77,.911,9.254,2.341,14.588c1.429,5.335,6.913,8.5,12.247,7.071s8.5-6.913,7.071-12.247Zm-7.589,10.316c-4.268,1.143-8.654-1.389-9.798-5.657-1.143-4.268,1.389-8.654,5.657-9.798,4.268-1.144,8.654,1.389,9.798,5.657,1.143,4.268-1.389,8.654-5.657,9.798Z"/><polygon points="17.796 10.447 5.876 8.464 9.102 12.776 8.464 18.124 17.796 10.447"/></g></svg>