<?xml version="1.0" encoding="utf-8"?>
<!-- Generator: Adobe Illustrator 27.0.0, SVG Export Plug-In . SVG Version: 6.00 Build 0)  -->
<svg version="1.1" xmlns="http://www.w3.org/2000/svg" xmlns:xlink="http://www.w3.org/1999/xlink" x="0px" y="0px"
	 viewBox="0 0 192 192" style="enable-background:new 0 0 192 192;" xml:space="preserve">
<style type="text/css">
	.st0{fill:none;}
	.st1{fill:#FDD835;}
	.st2{opacity:0.2;}
	.st3{fill:#BF360C;}
	.st4{fill:#FFFFFF;}
	.st5{fill:url(#SVGID_1_);}
	.st6{fill:#7E57C2;}
	.st7{fill:#1A237E;}
	.st8{fill:url(#SVGID_00000144299819968854864630000014244567236932014261_);}
	.st9{fill:#EEEEEE;}
	.st10{opacity:0.1;}
	.st11{fill:#212121;}
	.st12{opacity:0.4;}
	.st13{fill:url(#SVGID_00000070077571373895763120000007010998934352592052_);}
	
		.st14{clip-path:url(#SVGID_00000101824961170264966000000001041478866025940638_);fill:url(#SVGID_00000131335965512736826380000007582241290833988762_);}
	.st15{clip-path:url(#SVGID_00000101824961170264966000000001041478866025940638_);}
	.st16{fill:url(#SVGID_00000111895682802173654960000001394696713157151890_);}
	
		.st17{clip-path:url(#SVGID_00000075154882757562323190000001511497718940937896_);fill:url(#SVGID_00000032625347184136633460000004422581831648262833_);}
	.st18{clip-path:url(#SVGID_00000075154882757562323190000001511497718940937896_);}
	.st19{fill:url(#SVGID_00000073698676829426538270000001188176644796455835_);}
	.st20{fill:url(#SVGID_00000053529487149305449830000012025717493757232298_);}
	.st21{fill:url(#SVGID_00000078011830355672397860000005208078777546697626_);}
	.st22{fill:url(#SVGID_00000067937855403352848670000017975901401585813897_);}
	.st23{fill:url(#SVGID_00000132050804905425551590000003030764933365086875_);}
	.st24{fill:url(#SVGID_00000131324972531590506740000010269198582422426527_);}
	
		.st25{clip-path:url(#SVGID_00000172434366653870862040000017193764287726587815_);fill:url(#SVGID_00000107584886573017273370000017267158693013181587_);}
	.st26{clip-path:url(#SVGID_00000172434366653870862040000017193764287726587815_);}
	.st27{fill:url(#SVGID_00000091718042000693539360000000456815580432099985_);}
	
		.st28{clip-path:url(#SVGID_00000002349301086335013380000016431512724721329063_);fill:url(#SVGID_00000005952291927564879730000002252686074321347972_);}
	.st29{clip-path:url(#SVGID_00000002349301086335013380000016431512724721329063_);}
	.st30{fill:url(#SVGID_00000072983911510950522570000015883400408677965451_);}
	
		.st31{clip-path:url(#SVGID_00000136402755091780841020000003408669851241420932_);fill:url(#SVGID_00000127742199575458135480000015356853933275604665_);}
	.st32{clip-path:url(#SVGID_00000136402755091780841020000003408669851241420932_);}
	.st33{fill:url(#SVGID_00000011019080819032834090000015941444042910128297_);}
	
		.st34{clip-path:url(#SVGID_00000145737523079190877990000001618905133818860728_);fill:url(#SVGID_00000076588097711332338120000006149746772631019648_);}
	.st35{clip-path:url(#SVGID_00000145737523079190877990000001618905133818860728_);}
	.st36{fill:url(#SVGID_00000055683450066528900030000009640941049589746873_);}
	.st37{fill:#29B6F6;}
	.st38{fill:#263238;}
	.st39{fill:url(#SVGID_00000017497369810526804900000015407747216350832259_);}
	.st40{fill:url(#SVGID_00000001662952382266824020000000066422171415311749_);}
	.st41{fill:url(#SVGID_00000100382230549956316420000017206466629384420265_);}
	.st42{fill:url(#SVGID_00000072263607367489690450000014492767581235691962_);}
	
		.st43{clip-path:url(#SVGID_00000064336918100537131040000017187544802013979313_);fill:url(#SVGID_00000138549210735320656840000006013009499312371097_);}
	.st44{clip-path:url(#SVGID_00000064336918100537131040000017187544802013979313_);}
	.st45{fill:url(#SVGID_00000031172000341418317090000004236837695517341060_);}
	.st46{fill:url(#SVGID_00000168107962746157406950000016942060998446622361_);}
	.st47{fill:url(#SVGID_00000124124241401594844410000007444428572958662532_);}
	.st48{fill:url(#SVGID_00000012447826798279329410000007279575679281454242_);}
	
		.st49{clip-path:url(#SVGID_00000054253215492188237380000013921404960925930679_);fill:url(#SVGID_00000010286373115860045800000008401795627309106820_);}
	.st50{clip-path:url(#SVGID_00000054253215492188237380000013921404960925930679_);}
	.st51{fill:url(#SVGID_00000054976983303729451220000000588301181135753646_);}
	.st52{fill:url(#SVGID_00000183214477308372906270000006024495323929085352_);}
	.st53{fill:url(#SVGID_00000149356293314770585020000016500600643088108732_);}
	.st54{fill:url(#SVGID_00000093868551338107480780000005947439845903400844_);}
	.st55{fill:#FAFAFA;}
	.st56{fill:url(#SVGID_00000181052766137210014910000000023090559474310561_);}
	.st57{fill:url(#SVGID_00000059999108996523730670000012712614392275826846_);}
	.st58{fill:url(#SVGID_00000049195373400007460420000016013617570542459310_);}
	.st59{fill:url(#SVGID_00000024698480286616243270000013639922223219559074_);}
	
		.st60{clip-path:url(#SVGID_00000133514342930078781850000011303622078223637138_);fill:url(#SVGID_00000011740090486642678800000004496425963916442255_);}
	.st61{clip-path:url(#SVGID_00000133514342930078781850000011303622078223637138_);}
	.st62{fill:url(#SVGID_00000159430445145898581080000016451440637257839255_);}
	.st63{fill:url(#SVGID_00000011720542680088954140000012292318185885215375_);}
	.st64{fill:url(#SVGID_00000093162949912589670470000015777475246618824636_);}
	.st65{fill:url(#SVGID_00000022557525437726674580000000537829865802651527_);}
	
		.st66{clip-path:url(#SVGID_00000152229058004410561730000014216739890591089311_);fill:url(#SVGID_00000080900917613666100030000000240937503694290053_);}
	.st67{clip-path:url(#SVGID_00000152229058004410561730000014216739890591089311_);}
	.st68{fill:url(#SVGID_00000131334240435539993310000001953978724709575305_);}
	.st69{fill:url(#SVGID_00000072976310142861330530000012793979320284199838_);}
	.st70{fill:url(#SVGID_00000070096066851810402810000015217366122100393905_);}
	.st71{fill:url(#SVGID_00000112618983562929204040000005134151782755405198_);}
	.st72{fill:url(#SVGID_00000072239397602815317160000001478707237580893103_);}
	.st73{fill:url(#SVGID_00000075874494180797457820000004178498135352963488_);}
	.st74{fill:url(#SVGID_00000023276722367142015820000004300536891619822721_);}
	.st75{fill:url(#SVGID_00000173867572494977733920000010937567055134636167_);}
	
		.st76{clip-path:url(#SVGID_00000176017313757360625440000006106531557863768711_);fill:url(#SVGID_00000055688649879362904260000009958562504075068606_);}
	.st77{clip-path:url(#SVGID_00000176017313757360625440000006106531557863768711_);}
	.st78{fill:url(#SVGID_00000096028666041763541840000006907115449649693081_);}
	.st79{fill:url(#SVGID_00000053514242648446412620000013604784442630906242_);}
	.st80{fill:url(#SVGID_00000009558974256930857870000000489271656412035723_);}
	.st81{fill:url(#SVGID_00000180328727966785346380000005173810041388738475_);}
	
		.st82{clip-path:url(#SVGID_00000036249536517194213650000014805884664651410352_);fill:url(#SVGID_00000017518097841000114180000014389147808191091390_);}
	.st83{clip-path:url(#SVGID_00000036249536517194213650000014805884664651410352_);}
	.st84{fill:url(#SVGID_00000056403578495477361750000008630880557331953066_);}
	.st85{fill:url(#SVGID_00000025424747494138206280000007064601710189709999_);}
	.st86{fill:url(#SVGID_00000012442531107803532940000000776897315474771882_);}
	.st87{fill:url(#SVGID_00000132799214546568960660000014505186305003019421_);}
	.st88{clip-path:url(#SVGID_00000163034103719080498160000009838092119879983281_);}
	.st89{fill:url(#SVGID_00000157305670271742145900000009626338104150966678_);}
	.st90{fill:url(#SVGID_00000082331142248729177830000009206367765912114058_);}
	.st91{fill:url(#SVGID_00000177446201936038999560000010274650554999950772_);}
	
		.st92{clip-path:url(#SVGID_00000161607072190344045480000005562608077836821434_);fill:url(#SVGID_00000019661546458263502750000004062588295810629271_);}
	.st93{clip-path:url(#SVGID_00000161607072190344045480000005562608077836821434_);}
	.st94{clip-path:url(#SVGID_00000062153285877171268510000004481064838762729917_);}
	.st95{fill:url(#SVGID_00000050650979853449120340000011750111293421776316_);}
	.st96{fill:url(#SVGID_00000106134060855504992020000009778935069580747194_);}
	.st97{fill:url(#SVGID_00000021103340247676888280000000704458215462011782_);}
	
		.st98{clip-path:url(#SVGID_00000140712560140726284930000010802609047270589344_);fill:url(#SVGID_00000117667387564708835060000015879803688565573822_);}
	.st99{clip-path:url(#SVGID_00000140712560140726284930000010802609047270589344_);}
	.st100{clip-path:url(#SVGID_00000098899699578356860240000009869676298337910666_);}
	.st101{fill:url(#SVGID_00000097459028342277484160000004641049941173990076_);}
	.st102{fill:url(#SVGID_00000054946197730522911050000006761917486067118778_);}
	.st103{fill:url(#SVGID_00000004518326091326056200000013045585476404675754_);}
	.st104{fill:#009688;}
	.st105{fill:url(#SVGID_00000110470295307959004930000004711647012057914530_);}
	.st106{fill:url(#SVGID_00000149344425534025016020000018239714992229249693_);}
	.st107{fill:url(#SVGID_00000085228801699997847510000004309108677096894858_);}
</style>
<g id="clear-day">
</g>
<g id="clear-night">
</g>
<g id="cloudy">
</g>
<g id="cloudy-day">
</g>
<g id="cloudy-night">
</g>
<g id="fog">
	<rect class="st0" width="192" height="192"/>
	<g>
		<g>
			<path class="st9" d="M104,56H24c-4.418,0-8-3.582-8-8v0c0-4.418,3.582-8,8-8h80c4.418,0,8,3.582,8,8v0
				C112,52.418,108.418,56,104,56z"/>
			<path class="st9" d="M104,88h64c4.418,0,8-3.582,8-8v0c0-4.418-3.582-8-8-8h-64c-4.418,0-8,3.582-8,8v0
				C96,84.418,99.582,88,104,88z"/>
			<path class="st9" d="M72,88H48c-4.418,0-8-3.582-8-8v0c0-4.418,3.582-8,8-8h24c4.418,0,8,3.582,8,8v0C80,84.418,76.418,88,72,88z
				"/>
			<path class="st9" d="M128,120H32c-4.418,0-8-3.582-8-8v0c0-4.418,3.582-8,8-8h96c4.418,0,8,3.582,8,8v0
				C136,116.418,132.418,120,128,120z"/>
			<path class="st9" d="M64,152h88c4.418,0,8-3.582,8-8v0c0-4.418-3.582-8-8-8H64c-4.418,0-8,3.582-8,8v0
				C56,148.418,59.582,152,64,152z"/>
		</g>
		<g class="st10">
			<g>
				<path class="st11" d="M72,87H48c-4.249,0-7.715-3.316-7.975-7.5C40.015,79.666,40,79.831,40,80c0,4.418,3.582,8,8,8h24
					c4.418,0,8-3.582,8-8c0-0.169-0.015-0.334-0.025-0.5C79.715,83.684,76.249,87,72,87z M175.975,79.5
					c-0.259,4.184-3.725,7.5-7.975,7.5h-64c-4.249,0-7.715-3.316-7.975-7.5C96.015,79.666,96,79.831,96,80c0,4.418,3.582,8,8,8h64
					c4.418,0,8-3.582,8-8C176,79.831,175.985,79.666,175.975,79.5z M104,56c4.418,0,8-3.582,8-8c0-0.169-0.015-0.334-0.025-0.5
					c-0.259,4.184-3.725,7.5-7.975,7.5H24c-4.249,0-7.715-3.316-7.975-7.5C16.015,47.666,16,47.831,16,48c0,4.418,3.582,8,8,8H104z
					 M136,112c0-0.169-0.015-0.334-0.025-0.5c-0.259,4.184-3.725,7.5-7.975,7.5H32c-4.249,0-7.715-3.316-7.975-7.5
					C24.015,111.666,24,111.831,24,112c0,4.418,3.582,8,8,8h96C132.418,120,136,116.418,136,112z M152,151H64
					c-4.249,0-7.715-3.316-7.975-7.5C56.015,143.666,56,143.831,56,144c0,4.418,3.582,8,8,8h88c4.418,0,8-3.582,8-8
					c0-0.169-0.015-0.334-0.025-0.5C159.715,147.684,156.249,151,152,151z"/>
			</g>
		</g>
		<g class="st12">
			<g>
				<path class="st4" d="M168,72h-64c-4.418,0-8,3.582-8,8c0,0.169,0.015,0.334,0.025,0.5C96.285,76.316,99.751,73,104,73h64
					c4.249,0,7.715,3.316,7.975,7.5c0.01-0.166,0.025-0.331,0.025-0.5C176,75.582,172.418,72,168,72z M135.975,112.5
					c0.01-0.166,0.025-0.331,0.025-0.5c0-4.418-3.582-8-8-8H32c-4.418,0-8,3.582-8,8c0,0.169,0.015,0.334,0.025,0.5
					c0.259-4.184,3.725-7.5,7.975-7.5h96C132.249,105,135.715,108.316,135.975,112.5z M104,41c4.249,0,7.715,3.316,7.975,7.5
					c0.01-0.166,0.025-0.331,0.025-0.5c0-4.418-3.582-8-8-8H24c-4.418,0-8,3.582-8,8c0,0.169,0.015,0.334,0.025,0.5
					C16.285,44.316,19.751,41,24,41H104z M152,136H64c-4.418,0-8,3.582-8,8c0,0.169,0.015,0.334,0.025,0.5
					c0.259-4.184,3.725-7.5,7.975-7.5h88c4.249,0,7.715,3.316,7.975,7.5c0.01-0.166,0.025-0.331,0.025-0.5
					C160,139.582,156.418,136,152,136z M48,72c-4.418,0-8,3.582-8,8c0,0.169,0.015,0.334,0.025,0.5C40.285,76.316,43.751,73,48,73
					h24c4.249,0,7.715,3.316,7.975,7.5C79.985,80.334,80,80.169,80,80c0-4.418-3.582-8-8-8H48z"/>
			</g>
		</g>
	</g>
	<g>
		<linearGradient id="SVGID_1_" gradientUnits="userSpaceOnUse" x1="38.3431" y1="22.3431" x2="89.6569" y2="73.6569">
			<stop  offset="2.405410e-07" style="stop-color:#FFFFFF;stop-opacity:0.1"/>
			<stop  offset="1" style="stop-color:#FFFFFF;stop-opacity:0"/>
		</linearGradient>
		<path class="st5" d="M104,56H24c-4.418,0-8-3.582-8-8v0c0-4.418,3.582-8,8-8h80c4.418,0,8,3.582,8,8v0
			C112,52.418,108.418,56,104,56z"/>
		
			<linearGradient id="SVGID_00000105407208406832190900000009023216934697816991_" gradientUnits="userSpaceOnUse" x1="114.3431" y1="58.3431" x2="157.6569" y2="101.6569">
			<stop  offset="2.405410e-07" style="stop-color:#FFFFFF;stop-opacity:0.1"/>
			<stop  offset="1" style="stop-color:#FFFFFF;stop-opacity:0"/>
		</linearGradient>
		<path style="fill:url(#SVGID_00000105407208406832190900000009023216934697816991_);" d="M104,88h64c4.418,0,8-3.582,8-8v0
			c0-4.418-3.582-8-8-8h-64c-4.418,0-8,3.582-8,8v0C96,84.418,99.582,88,104,88z"/>
		
			<linearGradient id="SVGID_00000157992733283603999350000001459858943830691239_" gradientUnits="userSpaceOnUse" x1="48.3431" y1="68.3431" x2="71.6569" y2="91.6569">
			<stop  offset="2.405410e-07" style="stop-color:#FFFFFF;stop-opacity:0.1"/>
			<stop  offset="1" style="stop-color:#FFFFFF;stop-opacity:0"/>
		</linearGradient>
		<path style="fill:url(#SVGID_00000157992733283603999350000001459858943830691239_);" d="M72,88H48c-4.418,0-8-3.582-8-8v0
			c0-4.418,3.582-8,8-8h24c4.418,0,8,3.582,8,8v0C80,84.418,76.418,88,72,88z"/>
		
			<linearGradient id="SVGID_00000017479576797079286210000014714366395627301308_" gradientUnits="userSpaceOnUse" x1="50.3431" y1="82.3431" x2="109.6569" y2="141.6569">
			<stop  offset="2.405410e-07" style="stop-color:#FFFFFF;stop-opacity:0.1"/>
			<stop  offset="1" style="stop-color:#FFFFFF;stop-opacity:0"/>
		</linearGradient>
		<path style="fill:url(#SVGID_00000017479576797079286210000014714366395627301308_);" d="M128,120H32c-4.418,0-8-3.582-8-8v0
			c0-4.418,3.582-8,8-8h96c4.418,0,8,3.582,8,8v0C136,116.418,132.418,120,128,120z"/>
		
			<linearGradient id="SVGID_00000132800257717925403480000007451009001404065172_" gradientUnits="userSpaceOnUse" x1="80.3431" y1="116.3431" x2="135.6569" y2="171.6569">
			<stop  offset="2.405410e-07" style="stop-color:#FFFFFF;stop-opacity:0.1"/>
			<stop  offset="1" style="stop-color:#FFFFFF;stop-opacity:0"/>
		</linearGradient>
		<path style="fill:url(#SVGID_00000132800257717925403480000007451009001404065172_);" d="M64,152h88c4.418,0,8-3.582,8-8v0
			c0-4.418-3.582-8-8-8H64c-4.418,0-8,3.582-8,8v0C56,148.418,59.582,152,64,152z"/>
	</g>
</g>
<g id="fog-day">
</g>
<g id="fog-night">
</g>
<g id="partly-cloudy-day">
</g>
<g id="partly-cloudy-night">
</g>
<g id="rain">
</g>
<g id="rain-day">
</g>
<g id="rain-night">
</g>
<g id="sleet">
</g>
<g id="sleet-day">
</g>
<g id="sleet-night">
</g>
<g id="snow">
</g>
<g id="snow-day">
</g>
<g id="snow-night">
</g>
<g id="storm">
</g>
<g id="storm-day">
</g>
<g id="storm-night">
</g>
<g id="unknown">
</g>
<g id="windy">
</g>
</svg>
