<?xml version="1.0" encoding="utf-8"?>
<!-- Generator: Adobe Illustrator 27.0.0, SVG Export Plug-In . SVG Version: 6.00 Build 0)  -->
<svg version="1.1" xmlns="http://www.w3.org/2000/svg" xmlns:xlink="http://www.w3.org/1999/xlink" x="0px" y="0px"
	 viewBox="0 0 192 192" style="enable-background:new 0 0 192 192;" xml:space="preserve">
<style type="text/css">
	.st0{fill:none;}
	.st1{fill:#FDD835;}
	.st2{opacity:0.2;}
	.st3{fill:#BF360C;}
	.st4{fill:#FFFFFF;}
	.st5{fill:url(#SVGID_1_);}
	.st6{fill:#7E57C2;}
	.st7{fill:#1A237E;}
	.st8{fill:url(#SVGID_00000116228732253717865520000016778244119073103800_);}
	.st9{fill:#EEEEEE;}
	.st10{opacity:0.1;}
	.st11{fill:#212121;}
	.st12{opacity:0.4;}
	.st13{fill:url(#SVGID_00000052065507367009216950000010668494386974483135_);}
	
		.st14{clip-path:url(#SVGID_00000076572425534037602890000012904599670297256594_);fill:url(#SVGID_00000083061899152225880600000001848427746715816340_);}
	.st15{clip-path:url(#SVGID_00000076572425534037602890000012904599670297256594_);}
	.st16{fill:url(#SVGID_00000085232193463938491320000016705133744163875736_);}
	
		.st17{clip-path:url(#SVGID_00000116936271833201592070000017190334154714111136_);fill:url(#SVGID_00000156577504274550512160000008376341621356762792_);}
	.st18{clip-path:url(#SVGID_00000116936271833201592070000017190334154714111136_);}
	.st19{fill:url(#SVGID_00000083786493243797884690000004559615739995881869_);}
	.st20{fill:url(#SVGID_00000066487818483129474730000014528583699478309280_);}
	.st21{fill:url(#SVGID_00000093895004326895948030000017483277177395112854_);}
	.st22{fill:url(#SVGID_00000037657569357803660800000015018013404858373521_);}
	.st23{fill:url(#SVGID_00000052104320869988686480000012397916239986412190_);}
	.st24{fill:url(#SVGID_00000154419272768130465870000002973404663324995512_);}
	
		.st25{clip-path:url(#SVGID_00000032615670329272017790000008518868674343917196_);fill:url(#SVGID_00000160886618408242714020000016244368649920338092_);}
	.st26{clip-path:url(#SVGID_00000032615670329272017790000008518868674343917196_);}
	.st27{fill:url(#SVGID_00000153673097410715256270000006310975360961174164_);}
	
		.st28{clip-path:url(#SVGID_00000080200872568243484380000008674186977058733981_);fill:url(#SVGID_00000055668088053964309540000014782120656859263648_);}
	.st29{clip-path:url(#SVGID_00000080200872568243484380000008674186977058733981_);}
	.st30{fill:url(#SVGID_00000105410592156822557130000003513248717562374819_);}
	
		.st31{clip-path:url(#SVGID_00000033370565180620525020000011486678565193564050_);fill:url(#SVGID_00000114073659973201670800000005855379730858173342_);}
	.st32{clip-path:url(#SVGID_00000033370565180620525020000011486678565193564050_);}
	.st33{fill:url(#SVGID_00000078727407738664029100000012615486111104596639_);}
	
		.st34{clip-path:url(#SVGID_00000006671154992626755610000014786683786273688716_);fill:url(#SVGID_00000124859064754840876600000005838033122902278290_);}
	.st35{clip-path:url(#SVGID_00000006671154992626755610000014786683786273688716_);}
	.st36{fill:url(#SVGID_00000155840506943719462640000001958702095769674628_);}
	.st37{fill:#29B6F6;}
	.st38{fill:#263238;}
	.st39{fill:url(#SVGID_00000030472073150341206720000017624178014823942288_);}
	.st40{fill:url(#SVGID_00000093158004835894768870000005102230487895007910_);}
	.st41{fill:url(#SVGID_00000139273945739904401620000009820122134024897935_);}
	.st42{fill:url(#SVGID_00000001635939653467999180000005144984107027825327_);}
	
		.st43{clip-path:url(#SVGID_00000113355445714915143320000014424456565785952658_);fill:url(#SVGID_00000132782592285679861860000003908863213024876968_);}
	.st44{clip-path:url(#SVGID_00000113355445714915143320000014424456565785952658_);}
	.st45{fill:url(#SVGID_00000122678533811040822190000003001735752453989310_);}
	.st46{fill:url(#SVGID_00000118365102585613627370000013440258716711709570_);}
	.st47{fill:url(#SVGID_00000147193509113023284390000016028831408783676066_);}
	.st48{fill:url(#SVGID_00000137130660352705740870000002972179534946755759_);}
	
		.st49{clip-path:url(#SVGID_00000117678985339244719380000005108357077259484081_);fill:url(#SVGID_00000128463916803200255580000014299483439556770206_);}
	.st50{clip-path:url(#SVGID_00000117678985339244719380000005108357077259484081_);}
	.st51{fill:url(#SVGID_00000097477220227728319290000006023121322564878727_);}
	.st52{fill:url(#SVGID_00000133510009877031600140000011949095753613238184_);}
	.st53{fill:url(#SVGID_00000161623229217737990580000014135518515337211534_);}
	.st54{fill:url(#SVGID_00000143615923449181790410000014216378097017137081_);}
	.st55{fill:#FAFAFA;}
	.st56{fill:url(#SVGID_00000040553093544315769870000016660357507988846477_);}
	.st57{fill:url(#SVGID_00000046340838757282445560000010193203583824234656_);}
	.st58{fill:url(#SVGID_00000152950474512944601830000015995322712748787128_);}
	.st59{fill:url(#SVGID_00000124865783205995765200000006796911934170812589_);}
	
		.st60{clip-path:url(#SVGID_00000142879884598586642280000007512788130986714769_);fill:url(#SVGID_00000093877609257534119990000011533780577325248647_);}
	.st61{clip-path:url(#SVGID_00000142879884598586642280000007512788130986714769_);}
	.st62{fill:url(#SVGID_00000145031103468187276020000003185510055028818331_);}
	.st63{fill:url(#SVGID_00000178199540173459342220000005221337264996313244_);}
	.st64{fill:url(#SVGID_00000107548281408711838300000000483921521146142138_);}
	.st65{fill:url(#SVGID_00000094614855597213998130000007575613333332557215_);}
	
		.st66{clip-path:url(#SVGID_00000129914538717459246830000005185447717595806362_);fill:url(#SVGID_00000180347420052762186770000008908309600541523853_);}
	.st67{clip-path:url(#SVGID_00000129914538717459246830000005185447717595806362_);}
	.st68{fill:url(#SVGID_00000067951982803629506860000006127924045463027884_);}
	.st69{fill:url(#SVGID_00000065039231564342506730000010668114446593227396_);}
	.st70{fill:url(#SVGID_00000101786791142908834390000011736487403343512253_);}
	.st71{fill:url(#SVGID_00000135661189087757337670000014495341093614691775_);}
	.st72{fill:url(#SVGID_00000163775563959792268420000001739454031962927504_);}
	.st73{fill:url(#SVGID_00000114766727127603795260000018122540645502960824_);}
	.st74{fill:url(#SVGID_00000044868994934169594050000010940212428935688869_);}
	.st75{fill:url(#SVGID_00000022520455078819345080000006451853708495879828_);}
	
		.st76{clip-path:url(#SVGID_00000101065244129062152100000010078011341293614993_);fill:url(#SVGID_00000150080569714629319580000007993430283528943285_);}
	.st77{clip-path:url(#SVGID_00000101065244129062152100000010078011341293614993_);}
	.st78{fill:url(#SVGID_00000038386493548716350150000011662941589220540087_);}
	.st79{fill:url(#SVGID_00000126304073485282452760000004914811073497339837_);}
	.st80{fill:url(#SVGID_00000163756521677461604620000000933016921384439200_);}
	.st81{fill:url(#SVGID_00000177474875358457357950000016560123848148607664_);}
	
		.st82{clip-path:url(#SVGID_00000151515492949986900130000001698516867532716687_);fill:url(#SVGID_00000113321624658174396220000005733739359141529268_);}
	.st83{clip-path:url(#SVGID_00000151515492949986900130000001698516867532716687_);}
	.st84{fill:url(#SVGID_00000127036891061211029540000002272462294741156992_);}
	.st85{fill:url(#SVGID_00000005232643605617043370000011029804184525235597_);}
	.st86{fill:url(#SVGID_00000078746941435548742950000007658115693621974451_);}
	.st87{fill:url(#SVGID_00000137844201285608962200000000160643164428950415_);}
	.st88{clip-path:url(#SVGID_00000108271762822360810320000006668190965530868155_);}
	.st89{fill:url(#SVGID_00000112623839916107057650000008088278413601036479_);}
	.st90{fill:url(#SVGID_00000179629135381175005280000003571156675315958150_);}
	.st91{fill:url(#SVGID_00000103972902970540160840000002790321439787409324_);}
	
		.st92{clip-path:url(#SVGID_00000145024689257540336980000006362475567808488871_);fill:url(#SVGID_00000128485406395775955020000001698323523593760135_);}
	.st93{clip-path:url(#SVGID_00000145024689257540336980000006362475567808488871_);}
	.st94{clip-path:url(#SVGID_00000132785069532660026870000007252733436747718819_);}
	.st95{fill:url(#SVGID_00000050646877267992625030000007599979270561810600_);}
	.st96{fill:url(#SVGID_00000033369224994171584230000015357656026631780780_);}
	.st97{fill:url(#SVGID_00000073695163055872820430000015709022180102096546_);}
	
		.st98{clip-path:url(#SVGID_00000025403320239269614850000016572777455414746018_);fill:url(#SVGID_00000111184998110900045020000017766172689635313553_);}
	.st99{clip-path:url(#SVGID_00000025403320239269614850000016572777455414746018_);}
	.st100{clip-path:url(#SVGID_00000160913250988982410370000009507024387686064303_);}
	.st101{fill:url(#SVGID_00000008860466240639835890000000415389125715417495_);}
	.st102{fill:url(#SVGID_00000136388438065186390980000016500227734824458672_);}
	.st103{fill:url(#SVGID_00000026850615084490819480000009917420307648445322_);}
	.st104{fill:#009688;}
	.st105{fill:url(#SVGID_00000044175341858526419540000006602506002057188760_);}
	.st106{fill:url(#SVGID_00000137839932968413400550000004055383407525472136_);}
	.st107{fill:url(#SVGID_00000119812503142384725070000011332070169892542360_);}
</style>
<g id="clear-day">
</g>
<g id="clear-night">
</g>
<g id="cloudy">
</g>
<g id="cloudy-day">
</g>
<g id="cloudy-night">
</g>
<g id="fog">
</g>
<g id="fog-day">
</g>
<g id="fog-night">
</g>
<g id="partly-cloudy-day">
</g>
<g id="partly-cloudy-night">
</g>
<g id="rain">
	<rect class="st0" width="192" height="192"/>
	<g>
		<g>
			<g>
				<g>
					<path class="st9" d="M154.817,64.11C149.3,36.669,125.066,16,96,16c-23.136,0-43.201,13.104-53.212,32.286
						C18.731,50.885,0,71.252,0,96v0c0,26.51,21.49,48,48,48h104c22.091,0,40-17.909,40-40v0
						C192,82.857,175.593,65.557,154.817,64.11z"/>
				</g>
			</g>
			<g class="st10">
				<g>
					<path class="st11" d="M152,143H48c-26.348,0-47.727-21.231-47.988-47.517C0.01,95.656,0,95.827,0,96v0c0,26.51,21.49,48,48,48
						h104c22.091,0,40-17.909,40-40v0c0-0.171-0.01-0.34-0.012-0.511C191.724,125.354,173.927,143,152,143z"/>
				</g>
			</g>
			<g class="st12">
				<g>
					<path class="st4" d="M154.817,64.11C149.3,36.669,125.066,16,96,16c-23.136,0-43.201,13.104-53.212,32.286
						C18.731,50.885,0,71.252,0,96v0c0,0.162,0.011,0.321,0.012,0.483c0.26-24.513,18.887-44.616,42.776-47.196
						C52.799,30.104,72.864,17,96,17c29.066,0,53.3,20.669,58.817,48.11c20.607,1.435,36.908,18.47,37.17,39.379
						C191.99,104.326,192,104.164,192,104v0C192,82.857,175.593,65.557,154.817,64.11z"/>
				</g>
			</g>
		</g>
		<g>
			<g>
				<path class="st37" d="M72,176L72,176c-4.418,0-8-3.582-8-8v-8c0-4.418,3.582-8,8-8h0c4.418,0,8,3.582,8,8v8
					C80,172.418,76.418,176,72,176z"/>
				<path class="st37" d="M96,176L96,176c-4.418,0-8-3.582-8-8v-8c0-4.418,3.582-8,8-8h0c4.418,0,8,3.582,8,8v8
					C104,172.418,100.418,176,96,176z"/>
				<path class="st37" d="M120,176L120,176c-4.418,0-8-3.582-8-8v-8c0-4.418,3.582-8,8-8h0c4.418,0,8,3.582,8,8v8
					C128,172.418,124.418,176,120,176z"/>
			</g>
			<g class="st2">
				<g>
					<path class="st38" d="M96,175c-4.418,0-8-3.582-8-8v1c0,4.418,3.582,8,8,8s8-3.582,8-8v-1C104,171.418,100.418,175,96,175z
						 M72,175c-4.418,0-8-3.582-8-8v1c0,4.418,3.582,8,8,8s8-3.582,8-8v-1C80,171.418,76.418,175,72,175z M120,175
						c-4.418,0-8-3.582-8-8v1c0,4.418,3.582,8,8,8s8-3.582,8-8v-1C128,171.418,124.418,175,120,175z"/>
				</g>
			</g>
			<g class="st2">
				<g>
					<path class="st4" d="M72,152c-4.418,0-8,3.582-8,8v1c0-4.418,3.582-8,8-8s8,3.582,8,8v-1C80,155.582,76.418,152,72,152z
						 M96,152c-4.418,0-8,3.582-8,8v1c0-4.418,3.582-8,8-8s8,3.582,8,8v-1C104,155.582,100.418,152,96,152z M120,152
						c-4.418,0-8,3.582-8,8v1c0-4.418,3.582-8,8-8s8,3.582,8,8v-1C128,155.582,124.418,152,120,152z"/>
				</g>
			</g>
		</g>
	</g>
	<g>
		<linearGradient id="SVGID_1_" gradientUnits="userSpaceOnUse" x1="64.3432" y1="156.3432" x2="79.6568" y2="171.6568">
			<stop  offset="2.405410e-07" style="stop-color:#FFFFFF;stop-opacity:0.1"/>
			<stop  offset="1" style="stop-color:#FFFFFF;stop-opacity:0"/>
		</linearGradient>
		<path class="st5" d="M72,152c-4.418,0-8,3.582-8,8v8c0,4.418,3.582,8,8,8s8-3.582,8-8v-8C80,155.582,76.418,152,72,152z"/>
		
			<linearGradient id="SVGID_00000023970360504069394350000008024366979513617584_" gradientUnits="userSpaceOnUse" x1="88.3432" y1="156.3432" x2="103.6568" y2="171.6568">
			<stop  offset="2.405410e-07" style="stop-color:#FFFFFF;stop-opacity:0.1"/>
			<stop  offset="1" style="stop-color:#FFFFFF;stop-opacity:0"/>
		</linearGradient>
		<path style="fill:url(#SVGID_00000023970360504069394350000008024366979513617584_);" d="M96,152c-4.418,0-8,3.582-8,8v8
			c0,4.418,3.582,8,8,8s8-3.582,8-8v-8C104,155.582,100.418,152,96,152z"/>
		
			<linearGradient id="SVGID_00000042704843259144532160000003261745239251676344_" gradientUnits="userSpaceOnUse" x1="112.3432" y1="156.3432" x2="127.6568" y2="171.6568">
			<stop  offset="2.405410e-07" style="stop-color:#FFFFFF;stop-opacity:0.1"/>
			<stop  offset="1" style="stop-color:#FFFFFF;stop-opacity:0"/>
		</linearGradient>
		<path style="fill:url(#SVGID_00000042704843259144532160000003261745239251676344_);" d="M120,152c-4.418,0-8,3.582-8,8v8
			c0,4.418,3.582,8,8,8s8-3.582,8-8v-8C128,155.582,124.418,152,120,152z"/>
		
			<linearGradient id="SVGID_00000038415399756738814780000000034120579702210225_" gradientUnits="userSpaceOnUse" x1="35.3029" y1="40.8195" x2="153.526" y2="159.0426">
			<stop  offset="2.405410e-07" style="stop-color:#FFFFFF;stop-opacity:0.1"/>
			<stop  offset="1" style="stop-color:#FFFFFF;stop-opacity:0"/>
		</linearGradient>
		<path style="fill:url(#SVGID_00000038415399756738814780000000034120579702210225_);" d="M154.817,64.11
			C149.3,36.669,125.066,16,96,16c-23.136,0-43.201,13.104-53.212,32.286C18.731,50.885,0,71.252,0,96v0c0,26.51,21.49,48,48,48h48
			h56c22.091,0,40-17.909,40-40v0C192,82.857,175.593,65.557,154.817,64.11z"/>
	</g>
</g>
<g id="rain-day">
</g>
<g id="rain-night">
</g>
<g id="sleet">
</g>
<g id="sleet-day">
</g>
<g id="sleet-night">
</g>
<g id="snow">
</g>
<g id="snow-day">
</g>
<g id="snow-night">
</g>
<g id="storm">
</g>
<g id="storm-day">
</g>
<g id="storm-night">
</g>
<g id="unknown">
</g>
<g id="windy">
</g>
</svg>
