<?xml version="1.0" encoding="utf-8"?>
<!-- Generator: Adobe Illustrator 27.0.0, SVG Export Plug-In . SVG Version: 6.00 Build 0)  -->
<svg version="1.1" xmlns="http://www.w3.org/2000/svg" xmlns:xlink="http://www.w3.org/1999/xlink" x="0px" y="0px"
	 viewBox="0 0 192 192" style="enable-background:new 0 0 192 192;" xml:space="preserve">
<style type="text/css">
	.st0{fill:none;}
	.st1{fill:#FDD835;}
	.st2{opacity:0.2;}
	.st3{fill:#BF360C;}
	.st4{fill:#FFFFFF;}
	.st5{fill:url(#SVGID_1_);}
	.st6{fill:#7E57C2;}
	.st7{fill:#1A237E;}
	.st8{fill:url(#SVGID_00000084499277729532963110000000188157051874197652_);}
	.st9{fill:#EEEEEE;}
	.st10{opacity:0.1;}
	.st11{fill:#212121;}
	.st12{opacity:0.4;}
	.st13{fill:url(#SVGID_00000159459547478798053050000002280641902719723920_);}
	
		.st14{clip-path:url(#SVGID_00000151541687575235964320000001358048843597887108_);fill:url(#SVGID_00000049924032524428340510000010152850173136936598_);}
	.st15{clip-path:url(#SVGID_00000151541687575235964320000001358048843597887108_);}
	.st16{fill:url(#SVGID_00000176012933362432224850000013978857202054430849_);}
	
		.st17{clip-path:url(#SVGID_00000183232454003259302870000003027985660302792838_);fill:url(#SVGID_00000031169192093084664810000014050360752898828735_);}
	.st18{clip-path:url(#SVGID_00000183232454003259302870000003027985660302792838_);}
	.st19{fill:url(#SVGID_00000005959468271476506470000008981790132472582557_);}
	.st20{fill:url(#SVGID_00000016049035855304323160000010698023830152914872_);}
	.st21{fill:url(#SVGID_00000060028521373944425580000016189592019646724265_);}
	.st22{fill:url(#SVGID_00000040567291734217755170000014535028656572471966_);}
	.st23{fill:url(#SVGID_00000169515736657811943400000003376795699778885798_);}
	.st24{fill:url(#SVGID_00000162327929208196992490000010754981242922488705_);}
	
		.st25{clip-path:url(#SVGID_00000062187897085540900620000012886977560491027597_);fill:url(#SVGID_00000006708175175444158500000016476328184516674435_);}
	.st26{clip-path:url(#SVGID_00000062187897085540900620000012886977560491027597_);}
	.st27{fill:url(#SVGID_00000054229636152760442640000003586301815569809043_);}
	
		.st28{clip-path:url(#SVGID_00000074428652954552735480000006149917073195407545_);fill:url(#SVGID_00000129912633520043874120000014247075954008663691_);}
	.st29{clip-path:url(#SVGID_00000074428652954552735480000006149917073195407545_);}
	.st30{fill:url(#SVGID_00000047768440347342344960000007171095471467914411_);}
	
		.st31{clip-path:url(#SVGID_00000055703706124613151520000018388129251921630339_);fill:url(#SVGID_00000160165322110290042000000015838628945199487116_);}
	.st32{clip-path:url(#SVGID_00000055703706124613151520000018388129251921630339_);}
	.st33{fill:url(#SVGID_00000137811757345203280320000007209598821276586630_);}
	
		.st34{clip-path:url(#SVGID_00000022521810182540727820000015876437399845953682_);fill:url(#SVGID_00000086658084038326142740000008603933014230699952_);}
	.st35{clip-path:url(#SVGID_00000022521810182540727820000015876437399845953682_);}
	.st36{fill:url(#SVGID_00000087391799768246526980000015571719286207162028_);}
	.st37{fill:#29B6F6;}
	.st38{fill:#263238;}
	.st39{fill:url(#SVGID_00000150781598877480949260000011831468921444344987_);}
	.st40{fill:url(#SVGID_00000135650940099551803530000016824340563967421341_);}
	.st41{fill:url(#SVGID_00000043453492867543346920000004263276257967581568_);}
	.st42{fill:url(#SVGID_00000052104895781640789650000014786552849923819169_);}
	
		.st43{clip-path:url(#SVGID_00000111179667684391476840000018008066530797121942_);fill:url(#SVGID_00000105420268641411678680000000433510627666585758_);}
	.st44{clip-path:url(#SVGID_00000111179667684391476840000018008066530797121942_);}
	.st45{fill:url(#SVGID_00000127743064263544543640000008418451883945260673_);}
	.st46{fill:url(#SVGID_00000057840194166498481440000000386329915112777857_);}
	.st47{fill:url(#SVGID_00000063627835959620745330000007874437119027884451_);}
	.st48{fill:url(#SVGID_00000016048367783266703160000016018576927932974260_);}
	
		.st49{clip-path:url(#SVGID_00000117642547216688256550000005072995390086859199_);fill:url(#SVGID_00000056420229522092386470000016988011182871344292_);}
	.st50{clip-path:url(#SVGID_00000117642547216688256550000005072995390086859199_);}
	.st51{fill:url(#SVGID_00000008838848934459340630000014334212679313033350_);}
	.st52{fill:url(#SVGID_00000155866021139456197900000012745529490884095906_);}
	.st53{fill:url(#SVGID_00000042007870941679766300000000302493497998399872_);}
	.st54{fill:url(#SVGID_00000067914524257886345450000017277572154008861575_);}
	.st55{fill:#FAFAFA;}
	.st56{fill:url(#SVGID_00000068656556032887828470000007670597486598866846_);}
	.st57{fill:url(#SVGID_00000096021489427005359570000010973433503704230813_);}
	.st58{fill:url(#SVGID_00000014626197462110304110000002547398745535283636_);}
	.st59{fill:url(#SVGID_00000019639411478701206970000016071842935565871538_);}
	
		.st60{clip-path:url(#SVGID_00000091013850543407504820000015234799098125044921_);fill:url(#SVGID_00000013905724678018899930000008159090607928781740_);}
	.st61{clip-path:url(#SVGID_00000091013850543407504820000015234799098125044921_);}
	.st62{fill:url(#SVGID_00000163051901915920851020000001360023408362324122_);}
	.st63{fill:url(#SVGID_00000054238398390578313650000017674030449544044984_);}
	.st64{fill:url(#SVGID_00000091728350680834451280000001654817976884989825_);}
	.st65{fill:url(#SVGID_00000094594899538692348030000009996369722614485654_);}
	
		.st66{clip-path:url(#SVGID_00000061462377813098295300000001033199535013139635_);fill:url(#SVGID_00000173869765592095241390000009187031052696394121_);}
	.st67{clip-path:url(#SVGID_00000061462377813098295300000001033199535013139635_);}
	.st68{fill:url(#SVGID_00000005944976101433387670000015440813388502161822_);}
	.st69{fill:url(#SVGID_00000085934339781303695930000011658547788117035156_);}
	.st70{fill:url(#SVGID_00000008836451706499299710000004272809633474941835_);}
	.st71{fill:url(#SVGID_00000169523235819637011820000000853115764510468756_);}
	.st72{fill:url(#SVGID_00000168795164193682988380000004319571968316854171_);}
	.st73{fill:url(#SVGID_00000136398405962259350780000017318280364167103910_);}
	.st74{fill:url(#SVGID_00000049934027673356039900000005431050176452774059_);}
	.st75{fill:url(#SVGID_00000106844956672018197770000005225976951778742944_);}
	
		.st76{clip-path:url(#SVGID_00000118386497346933070750000004657752954434858680_);fill:url(#SVGID_00000005253586379122198510000003908762090701851837_);}
	.st77{clip-path:url(#SVGID_00000118386497346933070750000004657752954434858680_);}
	.st78{fill:url(#SVGID_00000134241913817234863410000008998212508026854539_);}
	.st79{fill:url(#SVGID_00000128465854572526079570000012432316284293194394_);}
	.st80{fill:url(#SVGID_00000061468206535387243490000013323257192650975163_);}
	.st81{fill:url(#SVGID_00000150092781714370258920000005457766092130585484_);}
	
		.st82{clip-path:url(#SVGID_00000086674159956039525900000009388198312051016839_);fill:url(#SVGID_00000114772492311246308750000001076934119273498766_);}
	.st83{clip-path:url(#SVGID_00000086674159956039525900000009388198312051016839_);}
	.st84{fill:url(#SVGID_00000090282440763123678040000000795913073417997463_);}
	.st85{fill:url(#SVGID_00000134208615475746399060000004932110066499796411_);}
	.st86{fill:url(#SVGID_00000121981644858525717810000002087320095913983914_);}
	.st87{fill:url(#SVGID_00000111878375512221549660000013259033820433544846_);}
	.st88{clip-path:url(#SVGID_00000145051008091747698090000007677492815453193402_);}
	.st89{fill:url(#SVGID_00000152235644742012107710000002425745917643585417_);}
	.st90{fill:url(#SVGID_00000134222988842320294520000017890166119664541589_);}
	.st91{fill:url(#SVGID_00000152956445734771452330000014071877321363112098_);}
	
		.st92{clip-path:url(#SVGID_00000165198319181127242110000012168956034081018293_);fill:url(#SVGID_00000183236523282893392090000002187789366186057348_);}
	.st93{clip-path:url(#SVGID_00000165198319181127242110000012168956034081018293_);}
	.st94{clip-path:url(#SVGID_00000093874560748773779850000010086493807094141331_);}
	.st95{fill:url(#SVGID_00000135649562166748014470000000242214084367271822_);}
	.st96{fill:url(#SVGID_00000145018104087536918970000017692988619041658242_);}
	.st97{fill:url(#SVGID_00000088120457272546980340000011865316747096100531_);}
	
		.st98{clip-path:url(#SVGID_00000027599610535217239670000018372678915975082939_);fill:url(#SVGID_00000076596257950023086050000010773463901040285060_);}
	.st99{clip-path:url(#SVGID_00000027599610535217239670000018372678915975082939_);}
	.st100{clip-path:url(#SVGID_00000072991350321070735200000000686733068363893177_);}
	.st101{fill:url(#SVGID_00000030467717440809668480000010854578291149560765_);}
	.st102{fill:url(#SVGID_00000034064993793246591060000008303386269673302678_);}
	.st103{fill:url(#SVGID_00000159459415651623941330000014659598975658386584_);}
	.st104{fill:#009688;}
	.st105{fill:url(#SVGID_00000123409767221228955510000017318379774050166147_);}
	.st106{fill:url(#SVGID_00000042699483258316733160000007845760083999089832_);}
	.st107{fill:url(#SVGID_00000161614127457489108160000004536163868668048811_);}
</style>
<g id="clear-day">
</g>
<g id="clear-night">
</g>
<g id="cloudy">
</g>
<g id="cloudy-day">
</g>
<g id="cloudy-night">
</g>
<g id="fog">
</g>
<g id="fog-day">
</g>
<g id="fog-night">
</g>
<g id="partly-cloudy-day">
</g>
<g id="partly-cloudy-night">
</g>
<g id="rain">
</g>
<g id="rain-day">
</g>
<g id="rain-night">
</g>
<g id="sleet">
	<rect class="st0" width="192" height="192"/>
	<g>
		<g>
			<g>
				<g>
					<path class="st9" d="M154.817,64.11C149.3,36.669,125.066,16,96,16c-23.136,0-43.201,13.104-53.212,32.286
						C18.731,50.885,0,71.252,0,96v0c0,26.51,21.49,48,48,48h104c22.091,0,40-17.909,40-40v0
						C192,82.857,175.592,65.557,154.817,64.11z"/>
				</g>
			</g>
			<g class="st10">
				<g>
					<path class="st11" d="M152,143H48c-26.348,0-47.727-21.231-47.988-47.517C0.01,95.656,0,95.827,0,96v0c0,26.51,21.49,48,48,48
						h104c22.091,0,40-17.909,40-40v0c0-0.171-0.01-0.34-0.012-0.511C191.724,125.354,173.927,143,152,143z"/>
				</g>
			</g>
			<g class="st12">
				<g>
					<path class="st4" d="M154.817,64.11C149.3,36.669,125.066,16,96,16c-23.136,0-43.201,13.104-53.212,32.286
						C18.731,50.885,0,71.252,0,96v0c0,0.162,0.011,0.321,0.012,0.483c0.26-24.513,18.887-44.616,42.776-47.196
						C52.799,30.104,72.864,17,96,17c29.066,0,53.3,20.669,58.817,48.11c20.607,1.435,36.908,18.47,37.171,39.379
						C191.99,104.326,192,104.164,192,104v0C192,82.857,175.592,65.557,154.817,64.11z"/>
				</g>
			</g>
		</g>
		<g>
			<g>
				<path class="st55" d="M72,168L72,168c-4.418,0-8-3.582-8-8v0c0-4.418,3.582-8,8-8h0c4.418,0,8,3.582,8,8v0
					C80,164.418,76.418,168,72,168z"/>
				<g class="st10">
					<g>
						<path class="st11" d="M72,167c-4.249,0-7.715-3.316-7.975-7.5C64.015,159.666,64,159.831,64,160c0,4.418,3.582,8,8,8
							s8-3.582,8-8c0-0.169-0.015-0.334-0.025-0.5C79.715,163.684,76.249,167,72,167z"/>
					</g>
				</g>
				<g class="st12">
					<g>
						<path class="st4" d="M72,153c4.249,0,7.715,3.316,7.975,7.5c0.01-0.166,0.025-0.331,0.025-0.5c0-4.418-3.582-8-8-8
							s-8,3.582-8,8c0,0.169,0.015,0.334,0.025,0.5C64.285,156.316,67.751,153,72,153z"/>
					</g>
				</g>
			</g>
			<g>
				<path class="st37" d="M96,176L96,176c-4.418,0-8-3.582-8-8v-8c0-4.418,3.582-8,8-8h0c4.418,0,8,3.582,8,8v8
					C104,172.418,100.418,176,96,176z"/>
				<g class="st2">
					<g>
						<path class="st38" d="M96,175c-4.418,0-8-3.582-8-8v1c0,4.418,3.582,8,8,8s8-3.582,8-8v-1C104,171.418,100.418,175,96,175z"/>
					</g>
				</g>
				<g class="st2">
					<g>
						<path class="st4" d="M96,152c-4.418,0-8,3.582-8,8v1c0-4.418,3.582-8,8-8s8,3.582,8,8v-1C104,155.582,100.418,152,96,152z"/>
					</g>
				</g>
			</g>
			<g>
				<path class="st55" d="M120,168L120,168c-4.418,0-8-3.582-8-8v0c0-4.418,3.582-8,8-8h0c4.418,0,8,3.582,8,8v0
					C128,164.418,124.418,168,120,168z"/>
				<g class="st10">
					<g>
						<path class="st11" d="M120,167c-4.249,0-7.715-3.316-7.975-7.5c-0.01,0.166-0.025,0.331-0.025,0.5c0,4.418,3.582,8,8,8
							s8-3.582,8-8c0-0.169-0.015-0.334-0.025-0.5C127.715,163.684,124.249,167,120,167z"/>
					</g>
				</g>
				<g class="st12">
					<g>
						<path class="st4" d="M120,153c4.249,0,7.715,3.316,7.975,7.5c0.01-0.166,0.025-0.331,0.025-0.5c0-4.418-3.582-8-8-8
							s-8,3.582-8,8c0,0.169,0.015,0.334,0.025,0.5C112.285,156.316,115.751,153,120,153z"/>
					</g>
				</g>
			</g>
		</g>
	</g>
	<g>
		<linearGradient id="SVGID_1_" gradientUnits="userSpaceOnUse" x1="114.3431" y1="154.3431" x2="125.6569" y2="165.6569">
			<stop  offset="2.405410e-07" style="stop-color:#FFFFFF;stop-opacity:0.1"/>
			<stop  offset="1" style="stop-color:#FFFFFF;stop-opacity:0"/>
		</linearGradient>
		<circle class="st5" cx="120" cy="160" r="8"/>
		
			<linearGradient id="SVGID_00000000194664105415490100000016875683267658552490_" gradientUnits="userSpaceOnUse" x1="66.3431" y1="154.3431" x2="77.6569" y2="165.6568">
			<stop  offset="2.405410e-07" style="stop-color:#FFFFFF;stop-opacity:0.1"/>
			<stop  offset="1" style="stop-color:#FFFFFF;stop-opacity:0"/>
		</linearGradient>
		<circle style="fill:url(#SVGID_00000000194664105415490100000016875683267658552490_);" cx="72" cy="160" r="8"/>
		
			<linearGradient id="SVGID_00000099653607235845171830000018069574552768200614_" gradientUnits="userSpaceOnUse" x1="88.3431" y1="156.3431" x2="103.6569" y2="171.6568">
			<stop  offset="2.405410e-07" style="stop-color:#FFFFFF;stop-opacity:0.1"/>
			<stop  offset="1" style="stop-color:#FFFFFF;stop-opacity:0"/>
		</linearGradient>
		<path style="fill:url(#SVGID_00000099653607235845171830000018069574552768200614_);" d="M96,152c-4.418,0-8,3.582-8,8v8
			c0,4.418,3.582,8,8,8s8-3.582,8-8v-8C104,155.582,100.418,152,96,152z"/>
		
			<linearGradient id="SVGID_00000010286367238678759490000011491441054579927701_" gradientUnits="userSpaceOnUse" x1="35.3029" y1="40.8195" x2="153.526" y2="159.0426">
			<stop  offset="2.405410e-07" style="stop-color:#FFFFFF;stop-opacity:0.1"/>
			<stop  offset="1" style="stop-color:#FFFFFF;stop-opacity:0"/>
		</linearGradient>
		<path style="fill:url(#SVGID_00000010286367238678759490000011491441054579927701_);" d="M154.817,64.11
			C149.3,36.669,125.066,16,96,16c-23.136,0-43.201,13.104-53.212,32.286C18.731,50.885,0,71.252,0,96v0c0,26.51,21.49,48,48,48h48
			h56c22.091,0,40-17.909,40-40v0C192,82.857,175.592,65.557,154.817,64.11z"/>
	</g>
</g>
<g id="sleet-day">
</g>
<g id="sleet-night">
</g>
<g id="snow">
</g>
<g id="snow-day">
</g>
<g id="snow-night">
</g>
<g id="storm">
</g>
<g id="storm-day">
</g>
<g id="storm-night">
</g>
<g id="unknown">
</g>
<g id="windy">
</g>
</svg>
