<?xml version="1.0" encoding="utf-8"?>
<!-- Generator: Adobe Illustrator 27.0.0, SVG Export Plug-In . SVG Version: 6.00 Build 0)  -->
<svg version="1.1" xmlns="http://www.w3.org/2000/svg" xmlns:xlink="http://www.w3.org/1999/xlink" x="0px" y="0px"
	 viewBox="0 0 192 192" style="enable-background:new 0 0 192 192;" xml:space="preserve">
<style type="text/css">
	.st0{fill:none;}
	.st1{fill:#FDD835;}
	.st2{opacity:0.2;}
	.st3{fill:#BF360C;}
	.st4{fill:#FFFFFF;}
	.st5{fill:url(#SVGID_1_);}
	.st6{fill:#7E57C2;}
	.st7{fill:#1A237E;}
	.st8{fill:url(#SVGID_00000013178880154971139420000015726678450295563930_);}
	.st9{fill:#EEEEEE;}
	.st10{opacity:0.1;}
	.st11{fill:#212121;}
	.st12{opacity:0.4;}
	.st13{fill:url(#SVGID_00000116955470583937771190000005000240573145783708_);}
	
		.st14{clip-path:url(#SVGID_00000078024828787958952470000007727439320594203560_);fill:url(#SVGID_00000144329864505262846190000012512908424616171411_);}
	.st15{clip-path:url(#SVGID_00000078024828787958952470000007727439320594203560_);}
	.st16{fill:url(#SVGID_00000119802819091647571820000012692727148309842622_);}
	
		.st17{clip-path:url(#SVGID_00000042004852232719018040000000857794544800422839_);fill:url(#SVGID_00000023959324541203042090000005453686811046557625_);}
	.st18{clip-path:url(#SVGID_00000042004852232719018040000000857794544800422839_);}
	.st19{fill:url(#SVGID_00000102533254855854046930000011406524285532228771_);}
	.st20{fill:url(#SVGID_00000119078612885469258700000017511832627499052477_);}
	.st21{fill:url(#SVGID_00000094617745733564611460000006576792187034537387_);}
	.st22{fill:url(#SVGID_00000011720839249732612310000003033443356742036375_);}
	.st23{fill:url(#SVGID_00000065066333869663441710000009826874865871647917_);}
	.st24{fill:url(#SVGID_00000027598174725234623940000018128213041563407009_);}
	
		.st25{clip-path:url(#SVGID_00000000945037473290102370000002074167599904186241_);fill:url(#SVGID_00000148622348343111145970000006861634296326213760_);}
	.st26{clip-path:url(#SVGID_00000000945037473290102370000002074167599904186241_);}
	.st27{fill:url(#SVGID_00000065057723368571942580000010675918446157846939_);}
	
		.st28{clip-path:url(#SVGID_00000014621343692759203150000016631788066225243554_);fill:url(#SVGID_00000028318025405631319950000016030965834662390421_);}
	.st29{clip-path:url(#SVGID_00000014621343692759203150000016631788066225243554_);}
	.st30{fill:url(#SVGID_00000062184956291034458300000013818885707865809849_);}
	
		.st31{clip-path:url(#SVGID_00000027579671335191517720000003796498220637614510_);fill:url(#SVGID_00000093153876591932629520000011634808144396224432_);}
	.st32{clip-path:url(#SVGID_00000027579671335191517720000003796498220637614510_);}
	.st33{fill:url(#SVGID_00000115500832651397635370000003504428175915717008_);}
	
		.st34{clip-path:url(#SVGID_00000066510105785435896620000003995444317885474966_);fill:url(#SVGID_00000065756488559053855390000016162737638060803241_);}
	.st35{clip-path:url(#SVGID_00000066510105785435896620000003995444317885474966_);}
	.st36{fill:url(#SVGID_00000106106379307803392210000004625058716411408298_);}
	.st37{fill:#29B6F6;}
	.st38{fill:#263238;}
	.st39{fill:url(#SVGID_00000029751230915035845460000011836677612387430550_);}
	.st40{fill:url(#SVGID_00000064329952037633565710000011176323285197798040_);}
	.st41{fill:url(#SVGID_00000005249300697714460500000001988876090122951059_);}
	.st42{fill:url(#SVGID_00000150101936029483580380000017958674452652645271_);}
	
		.st43{clip-path:url(#SVGID_00000051375304611014473130000010122830671086698118_);fill:url(#SVGID_00000029013065932168630410000017004712301366014849_);}
	.st44{clip-path:url(#SVGID_00000051375304611014473130000010122830671086698118_);}
	.st45{fill:url(#SVGID_00000102523484818312882470000016664223336010702464_);}
	.st46{fill:url(#SVGID_00000044165960982272235730000015470943435797655188_);}
	.st47{fill:url(#SVGID_00000062878961831675933270000005581687131757572781_);}
	.st48{fill:url(#SVGID_00000075155592927585944430000007934560789171485114_);}
	
		.st49{clip-path:url(#SVGID_00000039120771127024472080000018046307895563283363_);fill:url(#SVGID_00000095328782422230711330000008023875804107690377_);}
	.st50{clip-path:url(#SVGID_00000039120771127024472080000018046307895563283363_);}
	.st51{fill:url(#SVGID_00000023990201198469031080000000805385028312074127_);}
	.st52{fill:url(#SVGID_00000018951023114070655220000011757449133176083874_);}
	.st53{fill:url(#SVGID_00000086660852115103269690000010119318164983874187_);}
	.st54{fill:url(#SVGID_00000044866078474743692300000010924729021501455039_);}
	.st55{fill:#FAFAFA;}
	.st56{fill:url(#SVGID_00000072987324065459698930000006691581726847810200_);}
	.st57{fill:url(#SVGID_00000105389825884152011370000007969042865551321523_);}
	.st58{fill:url(#SVGID_00000116218339760797736320000001752870355439619741_);}
	.st59{fill:url(#SVGID_00000122703676981233141520000002686235006188891044_);}
	
		.st60{clip-path:url(#SVGID_00000160901997356204927810000012646927598847411128_);fill:url(#SVGID_00000177482815287454406990000012280177916353752476_);}
	.st61{clip-path:url(#SVGID_00000160901997356204927810000012646927598847411128_);}
	.st62{fill:url(#SVGID_00000024681960272741139710000013032192726624984244_);}
	.st63{fill:url(#SVGID_00000157310515394815437880000002099250244570820259_);}
	.st64{fill:url(#SVGID_00000123441031977897875540000012770302869914323586_);}
	.st65{fill:url(#SVGID_00000128461313613967626420000013707352994141980043_);}
	
		.st66{clip-path:url(#SVGID_00000133493548165358907690000006297465032792769722_);fill:url(#SVGID_00000174595787904155262020000008937907110480701316_);}
	.st67{clip-path:url(#SVGID_00000133493548165358907690000006297465032792769722_);}
	.st68{fill:url(#SVGID_00000052809727294608678480000013694008158714585535_);}
	.st69{fill:url(#SVGID_00000183957168618931030380000010348716322248026803_);}
	.st70{fill:url(#SVGID_00000129924962542688596580000017544326602080962462_);}
	.st71{fill:url(#SVGID_00000080208040741362755810000008161192214216836258_);}
	.st72{fill:url(#SVGID_00000150785227512554527940000013397173517830493571_);}
	.st73{fill:url(#SVGID_00000033367457598810113840000003720962693712850596_);}
	.st74{fill:url(#SVGID_00000023275724854529167210000001991457978201043840_);}
	.st75{fill:url(#SVGID_00000178170001728585095860000010817128287890205847_);}
	
		.st76{clip-path:url(#SVGID_00000036947266134487468270000017963980159684138171_);fill:url(#SVGID_00000041275491591347601770000017447907175489525897_);}
	.st77{clip-path:url(#SVGID_00000036947266134487468270000017963980159684138171_);}
	.st78{fill:url(#SVGID_00000053533786128484017660000007007839353457947569_);}
	.st79{fill:url(#SVGID_00000070107800848042046040000008973506292670707102_);}
	.st80{fill:url(#SVGID_00000141426223206117985040000009804796142141639093_);}
	.st81{fill:url(#SVGID_00000178899362606271594720000009426489601358076054_);}
	
		.st82{clip-path:url(#SVGID_00000182499635383802444250000011500449573858462350_);fill:url(#SVGID_00000098900977063923551810000015463929055479552675_);}
	.st83{clip-path:url(#SVGID_00000182499635383802444250000011500449573858462350_);}
	.st84{fill:url(#SVGID_00000031168004003104742930000011048659619233277339_);}
	.st85{fill:url(#SVGID_00000008840623572134010530000013271032805668353954_);}
	.st86{fill:url(#SVGID_00000162316376197875979150000008021263791388454803_);}
	.st87{fill:url(#SVGID_00000165194891429116720300000003361489874559191962_);}
	.st88{clip-path:url(#SVGID_00000155853323938492111200000000401726810037085115_);}
	.st89{fill:url(#SVGID_00000141419010085968981320000006579490174391344266_);}
	.st90{fill:url(#SVGID_00000017518944733295182730000016987722780359025590_);}
	.st91{fill:url(#SVGID_00000123421762238244138890000009193082359391039148_);}
	
		.st92{clip-path:url(#SVGID_00000038400379171716652170000007455551871313031860_);fill:url(#SVGID_00000049943237510949800580000014294264353931745468_);}
	.st93{clip-path:url(#SVGID_00000038400379171716652170000007455551871313031860_);}
	.st94{clip-path:url(#SVGID_00000113324058193683982720000002133206043285804675_);}
	.st95{fill:url(#SVGID_00000182529893552942336800000004453037567313683356_);}
	.st96{fill:url(#SVGID_00000106112119449361149760000011232944617825898392_);}
	.st97{fill:url(#SVGID_00000111149756148441684290000003728814428786181287_);}
	
		.st98{clip-path:url(#SVGID_00000065054045900149477320000012033362647812160158_);fill:url(#SVGID_00000030481918200484059580000016763416352672800415_);}
	.st99{clip-path:url(#SVGID_00000065054045900149477320000012033362647812160158_);}
	.st100{clip-path:url(#SVGID_00000070096916062508686610000016109559970120310457_);}
	.st101{fill:url(#SVGID_00000031896640981148856330000012470467842060729004_);}
	.st102{fill:url(#SVGID_00000019642575928354702180000008720204058366500780_);}
	.st103{fill:url(#SVGID_00000127044558498509876330000006066032778177100456_);}
	.st104{fill:#009688;}
	.st105{fill:url(#SVGID_00000106119064865373481370000007576786060901883327_);}
	.st106{fill:url(#SVGID_00000039830573280163875560000008209421616941007506_);}
	.st107{fill:url(#SVGID_00000078760352908371216700000001046378069113155511_);}
</style>
<g id="clear-day">
</g>
<g id="clear-night">
</g>
<g id="cloudy">
</g>
<g id="cloudy-day">
</g>
<g id="cloudy-night">
</g>
<g id="fog">
</g>
<g id="fog-day">
</g>
<g id="fog-night">
</g>
<g id="partly-cloudy-day">
</g>
<g id="partly-cloudy-night">
</g>
<g id="rain">
</g>
<g id="rain-day">
</g>
<g id="rain-night">
</g>
<g id="sleet">
</g>
<g id="sleet-day">
</g>
<g id="sleet-night">
</g>
<g id="snow">
	<rect class="st0" width="192" height="192"/>
	<g>
		<g>
			<g>
				<g>
					<path class="st9" d="M154.817,64.11C149.3,36.669,125.066,16,96,16c-23.136,0-43.201,13.104-53.212,32.286
						C18.731,50.885,0,71.252,0,96v0c0,26.51,21.49,48,48,48h104c22.091,0,40-17.909,40-40v0
						C192,82.857,175.593,65.557,154.817,64.11z"/>
				</g>
			</g>
			<g class="st10">
				<g>
					<path class="st11" d="M152,143H48c-26.348,0-47.727-21.231-47.988-47.517C0.01,95.656,0,95.827,0,96v0c0,26.51,21.49,48,48,48
						h104c22.091,0,40-17.909,40-40v0c0-0.171-0.01-0.34-0.012-0.511C191.724,125.354,173.927,143,152,143z"/>
				</g>
			</g>
			<g class="st12">
				<g>
					<path class="st4" d="M154.817,64.11C149.3,36.669,125.066,16,96,16c-23.136,0-43.201,13.104-53.212,32.286
						C18.731,50.885,0,71.252,0,96v0c0,0.162,0.011,0.321,0.012,0.483c0.26-24.513,18.887-44.616,42.776-47.196
						C52.799,30.104,72.864,17,96,17c29.066,0,53.3,20.669,58.817,48.11c20.607,1.435,36.908,18.47,37.17,39.379
						C191.99,104.326,192,104.164,192,104v0C192,82.857,175.593,65.557,154.817,64.11z"/>
				</g>
			</g>
		</g>
		<g>
			<g>
				<path class="st55" d="M96,176L96,176c-4.418,0-8-3.582-8-8v0c0-4.418,3.582-8,8-8h0c4.418,0,8,3.582,8,8v0
					C104,172.418,100.418,176,96,176z"/>
				<path class="st55" d="M72,168L72,168c-4.418,0-8-3.582-8-8v0c0-4.418,3.582-8,8-8h0c4.418,0,8,3.582,8,8v0
					C80,164.418,76.418,168,72,168z"/>
				<path class="st55" d="M120,168L120,168c-4.418,0-8-3.582-8-8v0c0-4.418,3.582-8,8-8h0c4.418,0,8,3.582,8,8v0
					C128,164.418,124.418,168,120,168z"/>
			</g>
			<g class="st10">
				<g>
					<path class="st11" d="M72,167c-4.249,0-7.715-3.316-7.975-7.5C64.015,159.666,64,159.831,64,160c0,4.418,3.582,8,8,8
						s8-3.582,8-8c0-0.169-0.015-0.334-0.025-0.5C79.715,163.684,76.249,167,72,167z M127.975,159.5
						c-0.259,4.184-3.725,7.5-7.975,7.5s-7.715-3.316-7.975-7.5c-0.01,0.166-0.025,0.331-0.025,0.5c0,4.418,3.582,8,8,8s8-3.582,8-8
						C128,159.831,127.985,159.666,127.975,159.5z M96,175c-4.249,0-7.715-3.316-7.975-7.5C88.015,167.666,88,167.831,88,168
						c0,4.418,3.582,8,8,8s8-3.582,8-8c0-0.169-0.015-0.334-0.025-0.5C103.715,171.684,100.249,175,96,175z"/>
				</g>
			</g>
			<g class="st12">
				<g>
					<path class="st4" d="M72,152c-4.418,0-8,3.582-8,8c0,0.169,0.015,0.334,0.025,0.5c0.259-4.184,3.725-7.5,7.975-7.5
						s7.715,3.316,7.975,7.5c0.01-0.166,0.025-0.331,0.025-0.5C80,155.582,76.418,152,72,152z M120,152c-4.418,0-8,3.582-8,8
						c0,0.169,0.015,0.334,0.025,0.5c0.259-4.184,3.725-7.5,7.975-7.5s7.715,3.316,7.975,7.5c0.01-0.166,0.025-0.331,0.025-0.5
						C128,155.582,124.418,152,120,152z M96,160c-4.418,0-8,3.582-8,8c0,0.169,0.015,0.334,0.025,0.5
						c0.259-4.184,3.725-7.5,7.975-7.5s7.715,3.316,7.975,7.5c0.01-0.166,0.025-0.331,0.025-0.5C104,163.582,100.418,160,96,160z"/>
				</g>
			</g>
		</g>
	</g>
	<g>
		<linearGradient id="SVGID_1_" gradientUnits="userSpaceOnUse" x1="90.3432" y1="162.3432" x2="101.6568" y2="173.6568">
			<stop  offset="2.405410e-07" style="stop-color:#FFFFFF;stop-opacity:0.1"/>
			<stop  offset="1" style="stop-color:#FFFFFF;stop-opacity:0"/>
		</linearGradient>
		<circle class="st5" cx="96" cy="168" r="8"/>
		
			<linearGradient id="SVGID_00000029014448969134935570000015211447947390886298_" gradientUnits="userSpaceOnUse" x1="66.3432" y1="154.3432" x2="77.6568" y2="165.6568">
			<stop  offset="2.405410e-07" style="stop-color:#FFFFFF;stop-opacity:0.1"/>
			<stop  offset="1" style="stop-color:#FFFFFF;stop-opacity:0"/>
		</linearGradient>
		<circle style="fill:url(#SVGID_00000029014448969134935570000015211447947390886298_);" cx="72" cy="160" r="8"/>
		
			<linearGradient id="SVGID_00000107569411087996869390000012425973098796163727_" gradientUnits="userSpaceOnUse" x1="114.3432" y1="154.3432" x2="125.6568" y2="165.6568">
			<stop  offset="2.405410e-07" style="stop-color:#FFFFFF;stop-opacity:0.1"/>
			<stop  offset="1" style="stop-color:#FFFFFF;stop-opacity:0"/>
		</linearGradient>
		<circle style="fill:url(#SVGID_00000107569411087996869390000012425973098796163727_);" cx="120" cy="160" r="8"/>
		
			<linearGradient id="SVGID_00000139283146182447772120000012712013487071364785_" gradientUnits="userSpaceOnUse" x1="35.3029" y1="40.8195" x2="153.526" y2="159.0426">
			<stop  offset="2.405410e-07" style="stop-color:#FFFFFF;stop-opacity:0.1"/>
			<stop  offset="1" style="stop-color:#FFFFFF;stop-opacity:0"/>
		</linearGradient>
		<path style="fill:url(#SVGID_00000139283146182447772120000012712013487071364785_);" d="M154.817,64.11
			C149.3,36.669,125.066,16,96,16c-23.136,0-43.201,13.104-53.212,32.286C18.731,50.885,0,71.252,0,96v0c0,26.51,21.49,48,48,48h48
			h56c22.091,0,40-17.909,40-40v0C192,82.857,175.593,65.557,154.817,64.11z"/>
	</g>
</g>
<g id="snow-day">
</g>
<g id="snow-night">
</g>
<g id="storm">
</g>
<g id="storm-day">
</g>
<g id="storm-night">
</g>
<g id="unknown">
</g>
<g id="windy">
</g>
</svg>
