<?xml version="1.0" encoding="utf-8"?>
<!-- Generator: Adobe Illustrator 27.0.0, SVG Export Plug-In . SVG Version: 6.00 Build 0)  -->
<svg version="1.1" xmlns="http://www.w3.org/2000/svg" xmlns:xlink="http://www.w3.org/1999/xlink" x="0px" y="0px"
	 viewBox="0 0 192 192" style="enable-background:new 0 0 192 192;" xml:space="preserve">
<style type="text/css">
	.st0{fill:none;}
	.st1{fill:#FDD835;}
	.st2{opacity:0.2;}
	.st3{fill:#BF360C;}
	.st4{fill:#FFFFFF;}
	.st5{fill:url(#SVGID_1_);}
	.st6{fill:#7E57C2;}
	.st7{fill:#1A237E;}
	.st8{fill:url(#SVGID_00000111174721376425131750000009074748351192303022_);}
	.st9{fill:#EEEEEE;}
	.st10{opacity:0.1;}
	.st11{fill:#212121;}
	.st12{opacity:0.4;}
	.st13{fill:url(#SVGID_00000065786080587926944780000017379179170671593632_);}
	
		.st14{clip-path:url(#SVGID_00000129203612243908044940000017337187954265693591_);fill:url(#SVGID_00000137134078623030517010000014760952402973950884_);}
	.st15{clip-path:url(#SVGID_00000129203612243908044940000017337187954265693591_);}
	.st16{fill:url(#SVGID_00000146468850795891605420000004098284650372407464_);}
	
		.st17{clip-path:url(#SVGID_00000168078167612935394930000006614043919074593965_);fill:url(#SVGID_00000106861982387956407720000014768769648503934396_);}
	.st18{clip-path:url(#SVGID_00000168078167612935394930000006614043919074593965_);}
	.st19{fill:url(#SVGID_00000087386448931565380810000009573570709425143226_);}
	.st20{fill:url(#SVGID_00000100366945528271735190000009502829584337648823_);}
	.st21{fill:url(#SVGID_00000090289605718216045130000003315449802205013424_);}
	.st22{fill:url(#SVGID_00000183966220234472280470000014992570211471213184_);}
	.st23{fill:url(#SVGID_00000061445515592297953350000010958028798285615245_);}
	.st24{fill:url(#SVGID_00000128486529352247619620000001657425584781670823_);}
	
		.st25{clip-path:url(#SVGID_00000039843159666280631830000014270646188967875715_);fill:url(#SVGID_00000029742645535550859960000000378873548865969032_);}
	.st26{clip-path:url(#SVGID_00000039843159666280631830000014270646188967875715_);}
	.st27{fill:url(#SVGID_00000064324117905917234250000009713030264246081694_);}
	
		.st28{clip-path:url(#SVGID_00000020362718777990363700000002468389310074440330_);fill:url(#SVGID_00000181064942238805964670000010750749986053841320_);}
	.st29{clip-path:url(#SVGID_00000020362718777990363700000002468389310074440330_);}
	.st30{fill:url(#SVGID_00000070816800388645558830000003595559619318040248_);}
	
		.st31{clip-path:url(#SVGID_00000158716802245377405310000012525010554660165023_);fill:url(#SVGID_00000109731793571549555980000006458238167154453408_);}
	.st32{clip-path:url(#SVGID_00000158716802245377405310000012525010554660165023_);}
	.st33{fill:url(#SVGID_00000045596949821643909230000014879423716107331210_);}
	
		.st34{clip-path:url(#SVGID_00000012459564961509439260000004616013210634219687_);fill:url(#SVGID_00000078047181536304021350000006472356100564722048_);}
	.st35{clip-path:url(#SVGID_00000012459564961509439260000004616013210634219687_);}
	.st36{fill:url(#SVGID_00000165932133730938950080000017242949904646664854_);}
	.st37{fill:#29B6F6;}
	.st38{fill:#263238;}
	.st39{fill:url(#SVGID_00000032626318857680458150000010765558264230954410_);}
	.st40{fill:url(#SVGID_00000178923732253757994150000004349368159959937670_);}
	.st41{fill:url(#SVGID_00000176029040390504279120000005307179662905659832_);}
	.st42{fill:url(#SVGID_00000102511836167978472610000001729642714458542001_);}
	
		.st43{clip-path:url(#SVGID_00000146463686102273614700000007796877128168409985_);fill:url(#SVGID_00000076566150679683984120000008445276168083897535_);}
	.st44{clip-path:url(#SVGID_00000146463686102273614700000007796877128168409985_);}
	.st45{fill:url(#SVGID_00000163778744587610151320000001185866449690619063_);}
	.st46{fill:url(#SVGID_00000155130944133433054800000004023484351264352165_);}
	.st47{fill:url(#SVGID_00000096034878476383777440000001540181580725472931_);}
	.st48{fill:url(#SVGID_00000155112038820307621650000005907957906468481691_);}
	
		.st49{clip-path:url(#SVGID_00000089532645151367833780000011458621246170970530_);fill:url(#SVGID_00000152967282901448960670000009941717869873207215_);}
	.st50{clip-path:url(#SVGID_00000089532645151367833780000011458621246170970530_);}
	.st51{fill:url(#SVGID_00000026145166500132405720000017461886291996173218_);}
	.st52{fill:url(#SVGID_00000094610351714181174720000001012766258869379201_);}
	.st53{fill:url(#SVGID_00000106839211327250668760000003710018968053439639_);}
	.st54{fill:url(#SVGID_00000172398683603164464170000011551691935739698600_);}
	.st55{fill:#FAFAFA;}
	.st56{fill:url(#SVGID_00000070817907162246499220000015275453415345636505_);}
	.st57{fill:url(#SVGID_00000072241459593614771040000012489513825175098551_);}
	.st58{fill:url(#SVGID_00000070828118057316886820000003402194464018883249_);}
	.st59{fill:url(#SVGID_00000015322410966623628180000000677475379020161448_);}
	
		.st60{clip-path:url(#SVGID_00000043436584352946144120000017304249738003119280_);fill:url(#SVGID_00000170249517096894506530000012543249983645964981_);}
	.st61{clip-path:url(#SVGID_00000043436584352946144120000017304249738003119280_);}
	.st62{fill:url(#SVGID_00000155104586405113857550000005077179565521512340_);}
	.st63{fill:url(#SVGID_00000115499649852087681720000005281373311028137367_);}
	.st64{fill:url(#SVGID_00000128456005866333766750000003793326929393366426_);}
	.st65{fill:url(#SVGID_00000123422878474028647620000013814799464928062337_);}
	
		.st66{clip-path:url(#SVGID_00000175304358784448299820000004890279613597116839_);fill:url(#SVGID_00000039094788409317787300000015493780872908527523_);}
	.st67{clip-path:url(#SVGID_00000175304358784448299820000004890279613597116839_);}
	.st68{fill:url(#SVGID_00000121249664693109993470000001884457045484361608_);}
	.st69{fill:url(#SVGID_00000026149574460532019090000004554912366362054588_);}
	.st70{fill:url(#SVGID_00000147186184964116908580000007979823789916852652_);}
	.st71{fill:url(#SVGID_00000154385592071871001900000015935360021076964992_);}
	.st72{fill:url(#SVGID_00000012461127777270582920000004087609345179367338_);}
	.st73{fill:url(#SVGID_00000080177205404411679600000001317564910211506322_);}
	.st74{fill:url(#SVGID_00000158738512891222240650000009939189254330210220_);}
	.st75{fill:url(#SVGID_00000148629518821181653260000012658498282531406466_);}
	
		.st76{clip-path:url(#SVGID_00000142888289698906069890000005069307537381338297_);fill:url(#SVGID_00000059284005963493713480000013143870141607652225_);}
	.st77{clip-path:url(#SVGID_00000142888289698906069890000005069307537381338297_);}
	.st78{fill:url(#SVGID_00000067204479571073723620000013347820015175562897_);}
	.st79{fill:url(#SVGID_00000165926297173598124300000018430182382859758999_);}
	.st80{fill:url(#SVGID_00000158004703167945246250000004288322925416860607_);}
	.st81{fill:url(#SVGID_00000108301279092363634670000016027997675125011887_);}
	
		.st82{clip-path:url(#SVGID_00000136372484098726867180000010252193376239785629_);fill:url(#SVGID_00000085226854451119640250000001915431986459576454_);}
	.st83{clip-path:url(#SVGID_00000136372484098726867180000010252193376239785629_);}
	.st84{fill:url(#SVGID_00000057850473770963927920000011803018814703413139_);}
	.st85{fill:url(#SVGID_00000030445492562806889280000014180738708968420796_);}
	.st86{fill:url(#SVGID_00000141433582497493989960000009626812520280558469_);}
	.st87{fill:url(#SVGID_00000012463273751569109700000003047656164471843728_);}
	.st88{clip-path:url(#SVGID_00000047759948313344662100000017559115978416238481_);}
	.st89{fill:url(#SVGID_00000170986380708277555350000000771873075516353665_);}
	.st90{fill:url(#SVGID_00000176759783983825859450000013550620305508932482_);}
	.st91{fill:url(#SVGID_00000040559861900810098540000005833401322199596451_);}
	
		.st92{clip-path:url(#SVGID_00000056409461460701244550000014705424828598717372_);fill:url(#SVGID_00000124149473094699341220000016491455921460741764_);}
	.st93{clip-path:url(#SVGID_00000056409461460701244550000014705424828598717372_);}
	.st94{clip-path:url(#SVGID_00000012435463501408268660000014514812884556332726_);}
	.st95{fill:url(#SVGID_00000086676531637438739370000015042795104863710099_);}
	.st96{fill:url(#SVGID_00000153683942655480435820000014763989371002005949_);}
	.st97{fill:url(#SVGID_00000059306801527148837040000013192562109989511331_);}
	
		.st98{clip-path:url(#SVGID_00000121986591254291028070000010042721306831983788_);fill:url(#SVGID_00000053523403367635607560000018181837478905186210_);}
	.st99{clip-path:url(#SVGID_00000121986591254291028070000010042721306831983788_);}
	.st100{clip-path:url(#SVGID_00000064355655995241394440000007375572907269613246_);}
	.st101{fill:url(#SVGID_00000166659197941344259950000003124862519259228556_);}
	.st102{fill:url(#SVGID_00000002357154843662839040000005470422118333884051_);}
	.st103{fill:url(#SVGID_00000018238747357643269710000001938602518004260530_);}
	.st104{fill:#009688;}
	.st105{fill:url(#SVGID_00000170994421392068412490000011791198780845433766_);}
	.st106{fill:url(#SVGID_00000139257540198969513540000017700161522633447586_);}
	.st107{fill:url(#SVGID_00000051384276177459175430000004250045780350945964_);}
</style>
<g id="clear-day">
</g>
<g id="clear-night">
</g>
<g id="cloudy">
</g>
<g id="cloudy-day">
</g>
<g id="cloudy-night">
</g>
<g id="fog">
</g>
<g id="fog-day">
</g>
<g id="fog-night">
</g>
<g id="partly-cloudy-day">
</g>
<g id="partly-cloudy-night">
</g>
<g id="rain">
</g>
<g id="rain-day">
</g>
<g id="rain-night">
</g>
<g id="sleet">
</g>
<g id="sleet-day">
</g>
<g id="sleet-night">
</g>
<g id="snow">
</g>
<g id="snow-day">
</g>
<g id="snow-night">
</g>
<g id="storm">
</g>
<g id="storm-day">
</g>
<g id="storm-night">
</g>
<g id="unknown">
</g>
<g id="windy">
	<rect class="st0" width="192" height="192"/>
	<g>
		<g>
			<g>
				<g>
					<path class="st9" d="M104,112H24v16h80c4.418,0,8,3.582,8,8s-3.582,8-8,8s-8-3.582-8-8H80c0,13.166,10.834,24,24,24
						s24-10.834,24-24S117.166,112,104,112z"/>
				</g>
			</g>
			<g>
				<g>
					<path class="st9" d="M136,32v16c8.837,0,16,7.163,16,16s-7.163,16-16,16H24v16h112c17.555,0,32-14.445,32-32S153.555,32,136,32
						z"/>
				</g>
			</g>
		</g>
		<g class="st10">
			<g>
				<path class="st11" d="M111.975,135.5c0.01-0.166,0.025-0.331,0.025-0.5c0-4.418-3.582-8-8-8H24v1h80
					C108.249,128,111.715,131.316,111.975,135.5z M151.975,63.5C151.98,63.332,152,63.169,152,63c0-8.837-7.163-16-16-16v1
					C144.668,48,151.708,54.897,151.975,63.5z M104,159c-12.831,0-23.442-10.29-23.974-23H80c0,13.166,10.834,24,24,24
					s24-10.834,24-24c0-0.168-0.009-0.333-0.013-0.5C127.716,148.438,116.998,159,104,159z M167.987,63.5
					C167.715,80.827,153.387,95,136,95H24v1h112c17.555,0,32-14.445,32-32C168,63.832,167.99,63.667,167.987,63.5z"/>
			</g>
		</g>
		<g class="st12">
			<g>
				<path class="st4" d="M136,80H24v1h112c8.837,0,16-7.163,16-16c0-0.169-0.02-0.332-0.025-0.5C151.708,73.103,144.668,80,136,80z
					 M136,32v1c17.387,0,31.715,14.173,31.987,31.5C167.99,64.333,168,64.168,168,64C168,46.445,153.555,32,136,32z M104,112H24v1
					h80c12.998,0,23.716,10.562,23.987,23.5c0.004-0.167,0.013-0.332,0.013-0.5C128,122.834,117.166,112,104,112z M104,144
					c-4.418,0-8-3.582-8-8H80c0,0.335,0.012,0.668,0.026,1H96c0,4.418,3.582,8,8,8s8-3.582,8-8c0-0.169-0.015-0.334-0.025-0.5
					C111.715,140.684,108.249,144,104,144z"/>
			</g>
		</g>
	</g>
	<g>
		<linearGradient id="SVGID_1_" gradientUnits="userSpaceOnUse" x1="42.4686" y1="93.5314" x2="111.4059" y2="162.4686">
			<stop  offset="2.405410e-07" style="stop-color:#FFFFFF;stop-opacity:0.1"/>
			<stop  offset="1" style="stop-color:#FFFFFF;stop-opacity:0"/>
		</linearGradient>
		<path class="st5" d="M104,112H24v16h80c4.418,0,8,3.582,8,8s-3.582,8-8,8s-8-3.582-8-8H80c0,13.166,10.834,24,24,24
			s24-10.834,24-24S117.166,112,104,112z"/>
		
			<linearGradient id="SVGID_00000062169872113692376810000014871857979138135222_" gradientUnits="userSpaceOnUse" x1="63.2915" y1="40.7085" x2="133.8745" y2="111.2915">
			<stop  offset="2.405410e-07" style="stop-color:#FFFFFF;stop-opacity:0.1"/>
			<stop  offset="1" style="stop-color:#FFFFFF;stop-opacity:0"/>
		</linearGradient>
		<path style="fill:url(#SVGID_00000062169872113692376810000014871857979138135222_);" d="M136,32v16c8.837,0,16,7.163,16,16
			s-7.163,16-16,16H24v16h112c17.555,0,32-14.445,32-32S153.555,32,136,32z"/>
	</g>
</g>
</svg>
