<?xml version="1.0" encoding="UTF-8"?><svg id="uuid-a11ae974-ba03-4818-9d6a-5ed86a26971f" xmlns="http://www.w3.org/2000/svg" viewBox="0 0 24 24"><rect width="24" height="24" fill="none"/><g><g><rect x="11" y="20" width="2" height="3"/><rect x="20" y="11" width="3" height="2"/><rect x="11" y="1" width="2" height="3"/><rect x="1" y="11" width="3" height="2"/><rect x="4.282" y="17.218" width="2" height="3" transform="translate(14.782 1.747) rotate(45)"/><rect x="17.218" y="17.718" width="3" height="2" transform="translate(18.718 -7.753) rotate(45)"/><rect x="17.718" y="3.782" width="2" height="3" transform="translate(9.218 -11.688) rotate(45)"/><rect x="3.782" y="4.282" width="3" height="2" transform="translate(5.282 -2.188) rotate(45)"/></g><path d="M12,6c-3.314,0-6,2.686-6,6s2.686,6,6,6,6-2.686,6-6-2.686-6-6-6Zm0,10c-2.209,0-4-1.791-4-4s1.791-4,4-4,4,1.791,4,4-1.791,4-4,4Z"/></g></svg>