<?xml version="1.0" encoding="UTF-8"?><svg id="uuid-0ef57fbc-4cdc-41e8-a06d-b3185e329a09" xmlns="http://www.w3.org/2000/svg" viewBox="0 0 24 24"><rect width="24" height="24" fill="none"/><path d="M12.003,2.05C6.948,2.551,3,6.814,3,12c0,.427,.036,.845,.088,1.258-1.79,.591-3.088,2.254-3.088,4.242,0,2.485,2.015,4.5,4.5,4.5H14.25c.663,0,1.277-.187,1.817-.489,3.716-1.198,6.485-4.504,6.882-8.514-6.035-.027-10.92-4.912-10.947-10.947Zm2.247,17.95H4.5c-1.381,0-2.5-1.119-2.5-2.5s1.119-2.5,2.5-2.5h.938c.297-1.703,1.774-3,3.562-3,2.002,0,3.625,1.623,3.625,3.625,0,.303-.048,.593-.119,.875h1.744c.966,0,1.75,.784,1.75,1.75s-.784,1.75-1.75,1.75Zm3.747-1.786c-.019-1.963-1.548-3.549-3.48-3.687-.511-2.581-2.786-4.527-5.516-4.527-1.556,0-2.956,.641-3.973,1.663,.139-3.299,2.262-6.079,5.219-7.166,1.008,5.175,5.082,9.25,10.257,10.257-.505,1.375-1.389,2.556-2.506,3.459Z"/></svg>