<?xml version="1.0" encoding="UTF-8"?><svg id="uuid-470e63f3-e8e5-4264-ac22-d31cda2d8fd6" xmlns="http://www.w3.org/2000/svg" viewBox="0 0 24 24"><rect width="24" height="24" fill="none"/><path d="M14,2h-2v3h2V2Zm7,10v2h3v-2h-3Zm.485-6.071l-1.414-1.414-2.121,2.121,1.414,1.414,2.121-2.121Zm-13.435,.707l-2.121-2.121-1.414,1.414,2.121,2.121,1.414-1.414Zm9.9,12.728l2.121,2.121,1.414-1.414-2.121-2.121-1.414,1.414Zm-.272-2.611c.826-1.028,1.323-2.332,1.323-3.753,0-3.314-2.686-6-6-6-2.287,0-4.273,1.28-5.286,3.161-1.617,.38-2.967,1.448-3.711,2.889-2.248,.251-4.003,2.135-4.003,4.45,0,2.485,2.015,4.5,4.5,4.5H14.25c2.071,0,3.75-1.679,3.75-3.75,0-.535-.12-1.038-.323-1.497Zm-3.427,3.247H4.5c-1.381,0-2.5-1.119-2.5-2.5s1.119-2.5,2.5-2.5h.938c.297-1.703,1.774-3,3.562-3,2.002,0,3.625,1.623,3.625,3.625,0,.303-.048,.593-.119,.875h1.744c.966,0,1.75,.784,1.75,1.75s-.784,1.75-1.75,1.75Zm2.102-4.829c-.532-.36-1.156-.596-1.836-.645-.433-2.188-2.14-3.906-4.311-4.383,.721-.706,1.706-1.144,2.795-1.144,2.209,0,4,1.791,4,4,0,.802-.241,1.545-.648,2.171Z"/></svg>