<?xml version="1.0" encoding="UTF-8"?><svg id="uuid-2d57c8ff-7cc7-4426-9b4e-6e32e0423663" xmlns="http://www.w3.org/2000/svg" viewBox="0 0 24 24"><rect width="24" height="24" fill="none"/><g><g><rect x="10" y="16" width="11" height="2" rx="1" ry="1"/><rect x="3" y="16" width="5" height="2" rx="1" ry="1"/><rect x="5" y="20" width="14" height="2" rx="1" ry="1"/></g><path d="M4.262,14c-.165-.64-.262-1.308-.262-2,0-3.449,2.186-6.379,5.245-7.503,.84,4.315,3.816,7.858,7.781,9.503h4.769c.067-.329,.12-.663,.154-1.003-6.035-.027-10.92-4.912-10.947-10.947C5.948,2.551,2,6.814,2,12c0,.685,.07,1.354,.201,2h2.061Z"/></g></svg>