<?xml version="1.0" encoding="UTF-8"?><svg id="uuid-a66fc5d5-059e-4329-a04e-7dd12a971b5b" xmlns="http://www.w3.org/2000/svg" viewBox="0 0 24 24"><rect width="24" height="24" fill="none"/><g><g><rect x="10" y="16" width="11" height="2" rx="1" ry="1"/><rect x="3" y="16" width="5" height="2" rx="1" ry="1"/><rect x="5" y="20" width="14" height="2" rx="1" ry="1"/></g><path d="M13,1h-2v3h2V1Zm6.071,2.515l-2.121,2.121,1.414,1.414,2.121-2.121-1.414-1.414Zm.929,7.485v2h3v-2h-3ZM4.929,3.515l-1.414,1.414,2.121,2.121,1.414-1.414-2.121-2.121Zm7.071,2.485c-3.314,0-6,2.686-6,6,0,.702,.127,1.374,.349,2h2.206c-.344-.59-.555-1.268-.555-2,0-2.209,1.791-4,4-4s4,1.791,4,4c0,.732-.211,1.41-.555,2h2.206c.222-.626,.349-1.298,.349-2,0-3.314-2.686-6-6-6ZM1,13h3v-2H1v2Z"/></g></svg>