<?xml version="1.0" encoding="UTF-8"?><svg id="uuid-6bdbf014-7acd-465a-a1cb-d6d9dec3a636" xmlns="http://www.w3.org/2000/svg" viewBox="0 0 24 24"><rect width="24" height="24" fill="none"/><path d="M11.003,2.05C5.948,2.551,2,6.814,2,12c0,1.681,.419,3.262,1.152,4.652-.7,.545-1.152,1.39-1.152,2.348,0,1.657,1.343,3,3,3h6.5c.057,0,.111-.013,.167-.017,.112,.004,.221,.017,.333,.017,5.186,0,9.449-3.948,9.95-9.003-6.035-.027-10.92-4.912-10.947-10.947Zm.497,17.95H5c-.552,0-1-.448-1-1s.448-1,1-1h1.275c-.012-.082-.025-.164-.025-.25,0-.966,.784-1.75,1.75-1.75s1.75,.784,1.75,1.75c0,.49-.203,.932-.528,1.25h2.278c.276,0,.5,.224,.5,.5s-.224,.5-.5,.5Zm2.477-.271c.007-.077,.023-.151,.023-.229,0-1.32-1.027-2.39-2.324-2.482-.341-1.72-1.856-3.018-3.676-3.018-1.3,0-2.43,.671-3.1,1.677-.572-1.102-.9-2.35-.9-3.677,0-3.449,2.186-6.379,5.245-7.503,1.008,5.175,5.082,9.25,10.257,10.257-.9,2.451-2.969,4.319-5.526,4.974Z"/></svg>