<?xml version="1.0" encoding="UTF-8"?><svg id="uuid-1e6cabe5-5981-42ea-bc54-4e91131b66ad" xmlns="http://www.w3.org/2000/svg" viewBox="0 0 24 24"><rect width="24" height="24" fill="none"/><path d="M7.05,5.636l-2.121-2.121-1.414,1.414,2.121,2.121,1.414-1.414Zm-3.05,5.364H1v2h3v-2ZM20.485,4.929l-1.414-1.414-2.121,2.121,1.414,1.414,2.121-2.121ZM13,1h-2v3h2V1Zm5,11c0-3.314-2.686-6-6-6s-6,2.686-6,6c0,.827,.167,1.614,.47,2.331-.768,.349-1.396,.953-1.785,1.701-1.507,.159-2.685,1.419-2.685,2.968,0,1.657,1.343,3,3,3h6.5c1.381,0,2.5-1.119,2.5-2.5,0-.641-.245-1.22-.643-1.66,2.659-.616,4.643-2.994,4.643-5.84Zm-6.5,8H5c-.552,0-1-.448-1-1s.448-1,1-1h1.275c-.012-.082-.025-.164-.025-.25,0-.966,.784-1.75,1.75-1.75s1.75,.784,1.75,1.75c0,.49-.203,.932-.528,1.25h2.278c.276,0,.5,.224,.5,.5s-.224,.5-.5,.5Zm.5-4c-.252,0-.496-.03-.734-.074-.55-.984-1.526-1.693-2.683-1.874-.362-.602-.583-1.298-.583-2.052,0-2.209,1.791-4,4-4s4,1.791,4,4-1.791,4-4,4Zm8-5v2h3v-2h-3Zm-3.05,7.364l2.121,2.121,1.414-1.414-2.121-2.121-1.414,1.414Z"/></svg>