<?xml version="1.0" encoding="UTF-8"?><svg id="uuid-9ba3b547-b06d-4d76-b701-a8579cd5e8f8" xmlns="http://www.w3.org/2000/svg" viewBox="0 0 24 24"><path d="M0,0H24V24H0V0Z" fill="none"/><g><g><rect x="11" y="19" width="2" height="3" rx="1" ry="1"/><rect x="14" y="19" width="2" height="3" rx="1" ry="1"/></g><path d="M19.355,8.036c-.681-3.441-3.714-6.036-7.355-6.036-2.892,0-5.397,1.639-6.648,4.036-3.009,.323-5.352,2.869-5.352,5.964,0,3.205,2.515,5.815,5.678,5.984l-.678,1.016h2v4l3.333-5h8.667c2.761,0,5-2.239,5-5,0-2.64-2.052-4.779-4.645-4.964Zm-.355,7.964H6c-2.209,0-4-1.791-4-4s1.791-4,4-4h.712c.654-2.307,2.771-4,5.288-4,3.038,0,5.5,2.462,5.5,5.5,0,.169-.01,.335-.025,.5h1.525c1.657,0,3,1.343,3,3s-1.343,3-3,3Z"/></g></svg>