<?xml version="1.0" encoding="UTF-8"?><svg id="uuid-ce34507f-cf87-4ad6-9506-929543011185" xmlns="http://www.w3.org/2000/svg" viewBox="0 0 24 24"><rect width="24" height="24" fill="none"/><g><g><rect x="8" y="21" width="2" height="3" rx="1" ry="1"/><rect x="11" y="21" width="2" height="3" rx="1" ry="1"/></g><path d="M8.05,4.636l-2.121-2.121-1.414,1.414,2.121,2.121,1.414-1.414Zm13.435-.707l-1.414-1.414-2.121,2.121,1.414,1.414,2.121-2.121ZM14,0h-2V3h2V0Zm7,10v2h3v-2h-3Zm-3.05,7.364l2.121,2.121,1.414-1.414-2.121-2.121-1.414,1.414Zm-.272-2.611c.826-1.028,1.323-2.332,1.323-3.753,0-3.314-2.686-6-6-6-2.287,0-4.273,1.28-5.286,3.161-1.617,.38-2.967,1.448-3.711,2.889-2.248,.251-4.003,2.135-4.003,4.45,0,2.246,1.651,4.093,3.803,4.43l-.803,1.07h2v3l3-4h6.25c2.071,0,3.75-1.679,3.75-3.75,0-.535-.12-1.038-.323-1.497Zm-3.427,3.247H4.5c-1.381,0-2.5-1.119-2.5-2.5s1.119-2.5,2.5-2.5h.938c.297-1.703,1.774-3,3.562-3,2.002,0,3.625,1.623,3.625,3.625,0,.303-.048,.593-.119,.875h1.744c.966,0,1.75,.784,1.75,1.75s-.784,1.75-1.75,1.75Zm2.102-4.829c-.532-.36-1.156-.596-1.836-.645-.433-2.188-2.14-3.906-4.311-4.383,.721-.706,1.706-1.144,2.795-1.144,2.209,0,4,1.791,4,4,0,.802-.241,1.545-.648,2.171Z"/></g></svg>