<?xml version="1.0" encoding="UTF-8"?><svg id="uuid-dbf21b6f-6f5f-4601-8b04-0aee479a16ec" xmlns="http://www.w3.org/2000/svg" viewBox="0 0 24 24"><rect width="24" height="24" fill="none"/><g><path d="M21.531,15c.204-.642,.35-1.31,.418-2.003-6.035-.027-10.92-4.912-10.947-10.947C5.948,2.551,2,6.814,2,12c0,1.049,.18,2.051,.482,3h-.482v2H22v-2h-.469Zm-16.939,0c-.377-.927-.592-1.937-.592-3,0-3.449,2.186-6.379,5.245-7.503,1.008,5.175,5.082,9.25,10.257,10.257-.031,.086-.081,.161-.115,.245H4.592Z"/><polygon points="14.828 20.828 12 18 9.172 20.828 10.586 22.243 12 20.828 13.414 22.243 14.828 20.828"/></g></svg>