<?xml version="1.0" encoding="UTF-8"?><svg id="uuid-b6bf3f81-57fe-4069-ab7e-9a5f9666475e" xmlns="http://www.w3.org/2000/svg" viewBox="0 0 24 24"><rect width="24" height="24" fill="none"/><path d="M14,6.994l-1-1V3.5c0-.276,.224-.5,.5-.5s.5,.224,.5,.5h2c0-1.371-1.129-2.5-2.5-2.5s-2.5,1.129-2.5,2.5v2.494l-1,1-4-1,5,15.006c.175,.524,.448,1,1,1s.825-.476,1-1l5-15.006-4,1Zm-.613,2.215l1.099-.275,.466-.116-1.951,5.855v-5.851l.387,.387Zm-4.338-.391l.466,.116,1.099,.275,.386-.386v5.851l-1.951-5.855Z"/></svg>