<?xml version="1.0" encoding="UTF-8"?><svg id="uuid-9f2102a8-e5ce-4933-9c5e-a449dbed04e7" xmlns="http://www.w3.org/2000/svg" viewBox="0 0 24 24"><rect width="24" height="24" fill="none"/><g><path d="M12,2C6.477,2,2,6.477,2,12s4.477,10,10,10,10-4.477,10-10S17.523,2,12,2Zm0,18c-4.418,0-8-3.582-8-8S7.582,4,12,4s8,3.582,8,8-3.582,8-8,8Z"/><path d="M12,16c-2.83,0-5.426,.985-7.477,2.624,1.832,2.066,4.499,3.376,7.477,3.376s5.646-1.31,7.477-3.376c-2.052-1.638-4.648-2.624-7.477-2.624Z"/><path d="M15.5,5.938c-.478-.276-1.09-.112-1.366,.366l-2.139,3.704c-.689,.002-1.358,.352-1.727,.992-.552,.957-.225,2.18,.732,2.732,.957,.552,2.18,.224,2.732-.732,.369-.639,.338-1.394-.005-1.992l2.139-3.704c.276-.478,.112-1.09-.366-1.366Z"/><g><circle cx="18" cy="12" r="1"/><circle cx="6" cy="12" r="1"/><circle cx="9" cy="6.804" r="1"/></g></g></svg>