<?xml version="1.0" encoding="UTF-8"?><svg id="uuid-0d8812f4-aefc-44ec-9bda-7e1ef85eaee4" xmlns="http://www.w3.org/2000/svg" viewBox="0 0 24 24"><rect width="24" height="24" fill="none"/><g><path d="M20.485,4.929l-1.414-1.414-2.121,2.121,1.414,1.414,2.121-2.121Zm-13.435,.707l-2.121-2.121-1.414,1.414,2.121,2.121,1.414-1.414ZM13,1h-2v3h2V1Zm7,10v2h3v-2h-3Zm-2,1c0-3.314-2.686-6-6-6s-6,2.686-6,6c0,1.095,.299,2.117,.812,3H2v2H22v-2h-4.812c.513-.883,.812-1.905,.812-3Zm-3.38,3h-5.241c-.839-.733-1.38-1.798-1.38-3,0-2.209,1.791-4,4-4s4,1.791,4,4c0,1.202-.541,2.267-1.38,3ZM4,11H1v2h3v-2Z"/><polygon points="14.828 20.828 12 18 9.172 20.828 10.586 22.243 12 20.828 13.414 22.243 14.828 20.828"/></g></svg>