<?xml version="1.0" encoding="UTF-8"?><svg id="uuid-7069044d-e1a4-48d4-be23-6748206f8229" xmlns="http://www.w3.org/2000/svg" viewBox="0 0 24 24"><rect width="24" height="24" fill="none"/><g><path d="M20.485,4.929l-1.414-1.414-2.121,2.121,1.414,1.414,2.121-2.121ZM13,1h-2v3h2V1ZM7.05,5.636l-2.121-2.121-1.414,1.414,2.121,2.121,1.414-1.414Zm-3.05,5.364H1v2h3v-2Zm16,0v2h3v-2h-3Zm-2,1c0-3.314-2.686-6-6-6s-6,2.686-6,6c0,1.095,.299,2.117,.812,3H2v2H22v-2h-4.812c.513-.883,.812-1.905,.812-3Zm-3.38,3h-5.241c-.839-.733-1.38-1.798-1.38-3,0-2.209,1.791-4,4-4s4,1.791,4,4c0,1.202-.541,2.267-1.38,3Z"/><polygon points="13.414 18 12 19.414 10.586 18 9.172 19.414 10.586 20.828 12 22.243 13.414 20.828 14.828 19.414 13.414 18"/></g></svg>