<?xml version="1.0" encoding="UTF-8"?><svg id="uuid-fa2036c7-118a-466d-a2c5-2a4087d6b785" xmlns="http://www.w3.org/2000/svg" viewBox="0 0 24 24"><rect width="24" height="24" fill="none"/><path d="M14,13.76V4.5c0-1.381-1.119-2.5-2.5-2.5s-2.5,1.119-2.5,2.5V13.76c-1.205,.807-2,2.18-2,3.74,0,2.485,2.015,4.5,4.5,4.5s4.5-2.015,4.5-4.5c0-1.56-.795-2.933-2-3.74Zm-2.5,6.24c-1.381,0-2.5-1.119-2.5-2.5,0-1.209,.859-2.218,2-2.45V4.5c0-.276,.224-.5,.5-.5s.5,.224,.5,.5V15.05c1.141,.232,2,1.24,2,2.45,0,1.381-1.119,2.5-2.5,2.5Z"/></svg>